<svg id="Application_icon" data-name="Application icon" xmlns="http://www.w3.org/2000/svg" xmlns:xlink="http://www.w3.org/1999/xlink" width="34.653" height="34.403" viewBox="0 0 34.653 34.403">
  <defs>
    <clipPath id="clip-path">
      <rect id="Rectangle_13" data-name="Rectangle 13" width="34.653" height="34.403" fill="#fff"/>
    </clipPath>
  </defs>
  <g id="Group_22" data-name="Group 22" clip-path="url(#clip-path)">
    <path id="Path_141" data-name="Path 141" d="M13.482,0H2.416A2.419,2.419,0,0,0,0,2.416V13.482A2.419,2.419,0,0,0,2.416,15.9H13.482A2.419,2.419,0,0,0,15.9,13.482V2.416A2.419,2.419,0,0,0,13.482,0m.325,2.416V13.482a.325.325,0,0,1-.325.325H2.416a.325.325,0,0,1-.325-.325V2.416a.325.325,0,0,1,.325-.325H13.482a.325.325,0,0,1,.325.325" fill="#fff"/>
    <path id="Path_142" data-name="Path 142" d="M275.352,16.328a7.914,7.914,0,1,0-7.914-7.914,7.923,7.923,0,0,0,7.914,7.914m-5.893-7.914a5.9,5.9,0,0,1,5.893-5.893h0a5.893,5.893,0,1,1-5.893,5.893" transform="translate(-248.648 -0.465)" fill="#fff"/>
    <path id="Path_143" data-name="Path 143" d="M280.42,263.381H269.354a2.419,2.419,0,0,0-2.416,2.416v11.066a2.419,2.419,0,0,0,2.416,2.416H280.42a2.419,2.419,0,0,0,2.416-2.416V265.8a2.419,2.419,0,0,0-2.416-2.416m.325,2.416v11.066a.325.325,0,0,1-.325.325H269.354a.325.325,0,0,1-.325-.325V265.8a.325.325,0,0,1,.325-.325H280.42a.325.325,0,0,1,.325.325" transform="translate(-248.183 -244.876)" fill="#fff"/>
    <path id="Path_144" data-name="Path 144" d="M8.414,263.88a7.914,7.914,0,1,0,7.914,7.914,7.923,7.923,0,0,0-7.914-7.914m5.893,7.914A5.893,5.893,0,1,1,8.414,265.9a5.9,5.9,0,0,1,5.893,5.893" transform="translate(-0.465 -245.34)" fill="#fff"/>
  </g>
</svg>
