<svg id="Contact_icon_" data-name="Contact icon " xmlns="http://www.w3.org/2000/svg" xmlns:xlink="http://www.w3.org/1999/xlink" width="34.667" height="34.667" viewBox="0 0 34.667 34.667">
  <defs>
    <clipPath id="clip-path">
      <rect id="Rectangle_12" data-name="Rectangle 12" width="34.667" height="34.667" fill="#2a79a5"/>
    </clipPath>
  </defs>
  <g id="Group_21" data-name="Group 21" clip-path="url(#clip-path)">
    <path id="Path_138" data-name="Path 138" d="M192.682,107.781A5.221,5.221,0,1,0,187.461,113a5.221,5.221,0,0,0,5.221-5.221" transform="translate(-170.128 -95.744)" fill="#2a79a5"/>
    <path id="Path_139" data-name="Path 139" d="M144.018,292.3a1.733,1.733,0,0,0,1.689-2.135,9.026,9.026,0,0,0-17.538,0,1.733,1.733,0,0,0,1.689,2.135Z" transform="translate(-119.605 -264.446)" fill="#2a79a5"/>
    <path id="Path_140" data-name="Path 140" d="M30.134,34.667H4.533A4.538,4.538,0,0,1,0,30.134V4.533A4.538,4.538,0,0,1,4.533,0h25.6a4.538,4.538,0,0,1,4.533,4.533v25.6a4.538,4.538,0,0,1-4.533,4.533M4.533,2.725A1.81,1.81,0,0,0,2.725,4.533v25.6a1.81,1.81,0,0,0,1.808,1.808h25.6a1.81,1.81,0,0,0,1.808-1.808V4.533a1.81,1.81,0,0,0-1.808-1.808Z" fill="#2a79a5"/>
  </g>
</svg>
