<svg xmlns="http://www.w3.org/2000/svg" xmlns:xlink="http://www.w3.org/1999/xlink" width="1996.077" height="1330.718" viewBox="0 0 1996.077 1330.718">
  <defs>
    <clipPath id="clip-path">
      <rect id="Rectangle_18" data-name="Rectangle 18" width="1996.076" height="1330.717" fill="none"/>
    </clipPath>
    <clipPath id="clip-path-2">
      <path id="Path_148" data-name="Path 148" d="M696.2.9c.042.722.047.794.051.867H826.23c-.037-.722-.041-.794-.045-.867h2.975c.037.721.041.794.044.866H959.179L959.142.9h2.974c.031.721.034.794.037.866H1092.13c-.025-.722-.027-.794-.029-.867h3.027c.024.721.027.794.029.866h129.921c-.018-.722-.019-.794-.021-.867h3.026c.019.721.02.794.022.866h129.976c-.011-.722-.012-.794-.013-.867h2.971c.012.721.012.794.014.866h129.977c-.005-.722-.006-.794-.006-.867H1494c.005.721.006.794.006.866h129.975c0-.722,0-.794,0-.867h3.027c0,.721,0,.794,0,.866h129.924c.007-.722.008-.794.008-.867h3.027c-.007.721-.008.794-.009.866h129.974c.014-.722.015-.794.016-.867h2.975c-.014.721-.015.794-.016.866h129.977c.019-.722.022-.794.023-.867h2.972c-.019.721-.022.794-.023.866h129.976c.026-.722.029-.794.031-.867h3.028c-.026.721-.028.794-.031.866H2288.78c.031-.722.035-.794.039-.867h3.027c-.032.721-.035.794-.038.866h129.977c.038-.722.042-.794.046-.867h2.974c-.039.721-.042.794-.045.866h129.974c.044-.722.048-.794.053-.867h2.974c-.044.721-.048.794-.053.866H2677.16c-1.6,23.01-1.991,28.68-2.382,34.306-1.548,22.251-1.929,27.729-2.307,33.161-9.462,136.09-17.5,251.749-23.338,350.194-5.771,97.352-9.432,178.664-10.2,247.1-.765,68.335,1.348,124.6,7.214,171.865,5.933,47.806,15.8,87.11,30.7,120.96a285.964,285.964,0,0,0,37.433,62.294c15.563,19.767,34.239,38.419,56.594,56.925,23.25,19.245,50.769,38.57,83.41,59.115,34.447,21.681,75.142,45.063,123.5,71.635q21,11.537,44.106,24,23.648,12.758,49.724,26.654,26.736,14.255,56.286,29.9,30.369,16.091,64.032,33.884l17.7,9.359q9.042,4.784,18.348,9.708,9.377,4.965,19.027,10.079,9.728,5.157,19.74,10.474H3081.365l1.129.674h-4.62l-1.125-.676H2875.036l.97.674h-4.62l-.967-.676H2668.7l.813.674h-4.7l-.809-.676H2462.373l.654.674h-4.7l-.651-.676H2255.957l.5.674h-4.616l-.492-.676H2049.628l.337.674h-4.62l-.333-.676H1843.3c.15.562.165.618.18.674h-4.7l-.176-.676H1636.965c.019.562.02.618.021.674h-4.7c-.015-.563-.017-.619-.019-.676H1430.555c-.115.562-.126.618-.137.674h-4.62c.118-.563.129-.619.141-.676H1224.221l-.3.674h-4.616l.3-.676H1017.892l-.453.674h-4.7l.457-.676H811.563l-.612.674h-4.7l.615-.676H605.147l-.769.674h-4.62l.773-.676H398.818l-.927.674h-4.62l.931-.676H192.489l-1.086.674H186.7l1.089-.676H2.465q9.7-5.318,19.129-10.475,9.353-5.116,18.439-10.079,9.018-4.926,17.781-9.708l17.152-9.359q32.658-17.823,62.051-33.884,28.666-15.673,54.545-29.9,25.294-13.918,48.185-26.654,22.416-12.481,42.742-24c46.859-26.573,86.3-49.954,119.677-71.635,31.631-20.545,58.3-39.87,80.83-59.115,21.664-18.506,39.761-37.158,54.843-56.925a287.975,287.975,0,0,0,36.275-62.294c14.445-33.849,24-73.154,29.754-120.96,5.685-47.265,7.732-103.53,6.991-171.865-.743-68.436-4.291-149.747-9.883-247.1-5.655-98.446-13.447-214.1-22.616-350.194-1.481-21.965-1.856-27.54-2.235-33.161-1.53-22.732-1.918-28.5-2.308-34.306H693.226c-.043-.722-.048-.794-.052-.867H696.2M2677.282,0H573.7c1.589,23.624,1.981,29.444,2.369,35.217,1.538,22.827,1.917,28.446,2.293,34.015,9.169,136.09,16.962,251.749,22.616,350.194,5.592,97.352,9.14,178.664,9.883,247.1.741,68.335-1.305,124.6-6.991,171.865-5.751,47.806-15.309,87.11-29.754,120.96a287.975,287.975,0,0,1-36.275,62.294c-15.082,19.767-33.179,38.419-54.843,56.925-22.531,19.245-49.2,38.57-80.83,59.115-33.381,21.681-72.818,45.063-119.677,71.635q-20.346,11.537-42.742,24-22.916,12.758-48.185,26.654-25.909,14.255-54.545,29.9-29.43,16.091-62.051,33.884l-17.7,9.66q-9.051,4.94-18.373,10.032-9.4,5.133-19.076,10.429-9.76,5.339-19.813,10.851H3269.294q-10.377-5.513-20.446-10.851-9.989-5.3-19.685-10.429-9.619-5.094-18.959-10.032l-18.269-9.66q-33.7-17.823-64.032-33.884-29.582-15.673-56.286-29.9-26.1-13.918-49.724-26.654-23.132-12.481-44.106-24c-48.355-26.573-89.05-49.954-123.5-71.635-32.641-20.545-60.16-39.87-83.41-59.115-22.355-18.506-41.031-37.158-56.594-56.925a285.964,285.964,0,0,1-37.433-62.294c-14.907-33.849-24.771-73.154-30.7-120.96-5.867-47.265-7.979-103.53-7.214-171.865.766-68.436,4.427-149.747,10.2-247.1,5.836-98.446,13.876-214.1,23.338-350.194,1.567-22.526,1.965-28.246,2.365-34.015,1.621-23.332,2.032-29.252,2.446-35.217" transform="translate(0 0.002)" fill="none"/>
    </clipPath>
    <linearGradient id="linear-gradient" y1="1" x2="0" y2="1" gradientUnits="objectBoundingBox">
      <stop offset="0" stop-color="#b3b3b3"/>
      <stop offset="0.65" stop-color="gray"/>
      <stop offset="1" stop-color="#b3b3b3"/>
    </linearGradient>
    <clipPath id="clip-path-3">
      <path id="Path_149" data-name="Path 149" d="M3361.78,1045.371q4.862,5.98,10.105,11.862,2.6,2.923,5.307,5.828v-3.44q-1.085-1.193-2.154-2.388-5.262-5.887-10.137-11.862Zm-33.422-50.619h0Zm0,0q3.4,6.524,7.105,12.832,3.725,6.345,7.77,12.5,4.069,6.194,8.477,12.23,4.436,6.074,9.229,12.02h3.119q-4.811-5.95-9.258-12.02-4.423-6.039-8.5-12.23-4.06-6.161-7.8-12.5-3.717-6.312-7.127-12.832Zm-20.108-48.2Zm0,0q.757,2.314,1.535,4.6t1.586,4.539q.807,2.257,1.637,4.483t1.69,4.43q1.467,3.765,3.014,7.451t3.178,7.312q1.633,3.626,3.347,7.18t3.521,7.058h3.014q-1.808-3.5-3.531-7.058t-3.358-7.18q-1.634-3.619-3.188-7.312t-3.025-7.451q-.86-2.2-1.695-4.43t-1.643-4.483q-.807-2.254-1.59-4.539t-1.54-4.6ZM3296.8,903.268Zm0,0q1.185,5.629,2.469,11.074t2.678,10.746q1.394,5.3,2.9,10.436t3.119,10.141h2.952q-1.62-4.993-3.129-10.141t-2.905-10.436q-1.4-5.289-2.687-10.746t-2.477-11.075Zm-8.049-49.035q.794,6.4,1.679,12.6t1.863,12.2q.979,6,2.053,11.814t2.249,11.451h2.917q-1.177-5.633-2.255-11.451t-2.061-11.814q-.98-6-1.868-12.2t-1.685-12.6Zm-5.062-56.021q.452,7.329.981,14.412t1.145,13.94q.613,6.857,1.312,13.485t1.485,13.051h2.891q-.788-6.417-1.489-13.051t-1.317-13.485q-.614-6.851-1.147-13.94t-.984-14.412Zm-2.4-64.221q.143,8.408.358,16.534t.5,15.987q.288,7.86.653,15.456t.809,14.946h2.875q-.444-7.346-.811-14.946t-.656-15.456q-.289-7.858-.506-15.987t-.36-16.534Zm-.024-73.717q-.134,9.653-.2,18.987t-.069,18.358q0,9.025.066,17.749t.2,17.16h2.868q-.137-8.436-.2-17.16t-.065-17.749q0-9.025.068-18.358t.2-18.987Zm2.117-84.537q-.382,11.061-.7,21.765t-.586,21.05q-.262,10.348-.464,20.358t-.34,19.687h2.869q.138-9.68.341-19.687t.466-20.358q.263-10.352.587-21.05t.707-21.765Zm4.05-96.86h0Zm0,0q-.606,12.653-1.158,24.908t-1.052,24.1q-.5,11.852-.942,23.325t-.831,22.565h2.875q.389-11.1.833-22.565t.945-23.325q.5-11.859,1.055-24.1t1.162-24.909Zm5.792-110.674q-.806,14.441-1.568,28.442t-1.473,27.543q-.712,13.545-1.374,26.669t-1.272,25.817h2.889q.612-12.706,1.276-25.818t1.377-26.669q.716-13.558,1.478-27.543.763-14,1.573-28.442Zm7.35-126.028h0q-.986,16.416-1.933,32.349-.945,15.914-1.847,31.353-.9,15.422-1.76,30.382-.857,14.942-1.669,29.433h2.906q.815-14.493,1.674-29.434.861-14.961,1.766-30.382.906-15.442,1.853-31.353.95-15.934,1.939-32.349Zm8.736-143.143q-1.144,18.6-2.255,36.68-1.108,18.048-2.18,35.583-1.07,17.507-2.1,34.509-1.032,16.979-2.023,33.461h2.929q1-16.486,2.03-33.462,1.036-17,2.11-34.509,1.076-17.535,2.187-35.583,1.113-18.078,2.262-36.68Zm4.7-76.383q-.051.829-.1,1.656-.528,8.574-1.046,17.012t-1.03,16.726q-.51,8.288-1.012,16.435-.165,2.679-.33,5.348t-.328,5.326q-.163,2.658-.327,5.3t-.325,5.28h2.958q.163-2.634.325-5.28t.328-5.3q.165-2.658.329-5.326t.33-5.348q.5-8.147,1.016-16.435t1.032-16.726q.522-8.437,1.05-17.012.052-.827.1-1.656Z" transform="translate(-3280.993 -22.649)" fill="none"/>
    </clipPath>
    <linearGradient id="linear-gradient-2" x1="-26.203" y1="1.295" x2="-26.195" y2="1.295" xlink:href="#linear-gradient"/>
    <clipPath id="clip-path-4">
      <path id="Path_150" data-name="Path 150" d="M3280.3,1144.709q8.126,6.683,16.837,13.58,8.821,6.987,18.283,14.24,9.59,7.355,19.876,15.034,1.61,1.2,3.237,2.412v-2.74q-10.095-7.515-19.508-14.707-9.5-7.259-18.351-14.24-8.747-6.9-16.9-13.58Zm-56.255-51q5.836,5.986,12.1,12.011,6.326,6.086,13.113,12.247,6.857,6.228,14.21,12.573,7.436,6.418,15.408,13h3.469q-8.005-6.585-15.463-13-7.384-6.35-14.264-12.573-6.813-6.167-13.159-12.247-6.292-6.028-12.146-12.011Zm-40.453-48.336q4.178,5.98,8.686,11.862,4.54,5.928,9.429,11.788,4.927,5.908,10.227,11.782,5.346,5.926,11.088,11.849h3.265q-5.764-5.928-11.127-11.849-5.323-5.877-10.265-11.782-4.909-5.865-9.464-11.788-4.526-5.887-8.717-11.862Zm-28.723-50.619h0Zm0,0q2.923,6.524,6.106,12.832,3.2,6.345,6.678,12.5,3.5,6.2,7.286,12.231,3.812,6.074,7.932,12.019h3.119q-4.136-5.949-7.961-12.019-3.8-6.04-7.312-12.231-3.491-6.16-6.7-12.5-3.2-6.312-6.129-12.832Zm-17.281-48.2q.649,2.313,1.319,4.6t1.362,4.539q.694,2.257,1.408,4.484t1.453,4.428q1.262,3.766,2.591,7.452t2.731,7.312q1.4,3.626,2.877,7.18t3.025,7.058h3.015q-1.555-3.5-3.037-7.058t-2.888-7.18q-1.4-3.619-2.741-7.312t-2.6-7.452q-.74-2.2-1.457-4.428t-1.413-4.484q-.694-2.254-1.367-4.539t-1.324-4.6Zm-9.839-43.281Zm0,0q1.017,5.627,2.122,11.074t2.3,10.746q1.2,5.3,2.489,10.436t2.681,10.141h2.952q-1.393-4.995-2.691-10.141t-2.5-10.436q-1.2-5.289-2.311-10.746t-2.13-11.074Zm-6.918-49.035q.683,6.4,1.443,12.6t1.6,12.2q.842,6.005,1.764,11.814t1.933,11.451h2.917q-1.013-5.633-1.94-11.451t-1.771-11.814q-.844-6-1.607-12.2t-1.449-12.6Zm-4.35-56.021q.386,7.329.842,14.412t.984,13.94q.527,6.858,1.127,13.485t1.276,13.051h2.891q-.677-6.416-1.28-13.051t-1.132-13.485q-.529-6.851-.986-13.94t-.846-14.412Zm-2.067-64.221q.124,8.408.309,16.534t.433,15.986q.249,7.861.563,15.457t.694,14.946h2.875q-.382-7.347-.7-14.946t-.564-15.457q-.249-7.857-.436-15.986t-.309-16.534Zm-.02-73.717q-.116,9.654-.173,18.987t-.06,18.358q0,9.026.056,17.749t.176,17.16h2.868q-.118-8.435-.176-17.16t-.056-17.749q0-9.025.06-18.358t.172-18.987Zm1.819-84.537q-.328,11.06-.6,21.763t-.5,21.051q-.226,10.348-.4,20.357t-.292,19.687h2.868q.121-9.68.294-19.687t.4-20.357q.227-10.352.506-21.051t.607-21.763Zm3.48-96.861h0q-.519,12.653-1,24.908t-.9,24.1q-.43,11.852-.811,23.325t-.713,22.565h2.875q.334-11.1.716-22.565t.813-23.325q.43-11.859.907-24.1t1-24.908Zm4.979-110.675q-.7,14.442-1.347,28.443t-1.266,27.543q-.612,13.543-1.18,26.669t-1.093,25.818h2.887q.527-12.707,1.1-25.818t1.186-26.669q.614-13.557,1.269-27.543.658-14,1.354-28.443Zm6.316-126.027h0q-.848,16.416-1.661,32.35-.812,15.913-1.588,31.352-.774,15.422-1.512,30.381-.738,14.944-1.435,29.434h2.907q.7-14.492,1.439-29.434.74-14.961,1.519-30.381.778-15.442,1.593-31.352.814-15.936,1.667-32.35ZM3138.5,99.032h0Zm0,0q-.984,18.6-1.937,36.68-.953,18.049-1.874,35.583-.921,17.507-1.808,34.509-.886,16.978-1.739,33.461h2.93q.856-16.486,1.745-33.461.891-17,1.814-34.509.924-17.535,1.88-35.583.957-18.077,1.945-36.68Zm4.041-76.383q-.044.829-.087,1.656-.454,8.574-.9,17.012t-.886,16.726q-.437,8.288-.87,16.435-.141,2.679-.283,5.348t-.281,5.326q-.14,2.656-.281,5.3t-.279,5.28h2.958q.141-2.636.28-5.28t.281-5.3q.141-2.658.284-5.326t.283-5.348q.434-8.148.873-16.435t.888-16.726l.9-17.012q.042-.827.087-1.656Z" transform="translate(-3114.165 -22.649)" fill="none"/>
    </clipPath>
    <linearGradient id="linear-gradient-3" x1="-10.663" y1="1.154" x2="-10.66" y2="1.154" xlink:href="#linear-gradient"/>
    <clipPath id="clip-path-5">
      <path id="Path_151" data-name="Path 151" d="M3276.451,1310.014l5.56,4.621,5.659,4.7,5.763,4.789,5.868,4.877.565.469v-3.714l-1.973-1.632-5.789-4.789-5.685-4.7-5.583-4.621Zm-66.874-55.835q7.305,6.145,14.946,12.542,7.726,6.47,15.812,13.218,8.18,6.827,16.745,13.958,8.67,7.218,17.752,14.77h4.377q-9.125-7.554-17.832-14.77-8.6-7.133-16.819-13.958-8.124-6.75-15.882-13.218-7.675-6.4-15.011-12.542Zm-57.617-49.2q1.349,1.177,2.713,2.363t2.747,2.386l2.78,2.409q1.4,1.212,2.816,2.434,5.177,4.471,10.552,9.074,5.421,4.643,11.048,9.431,5.678,4.829,11.573,9.815,5.949,5.031,12.13,10.231h4.081q-6.209-5.2-12.184-10.231-5.923-4.987-11.624-9.815-5.654-4.789-11.1-9.431-5.4-4.605-10.6-9.074-1.421-1.221-2.828-2.434l-2.793-2.409q-1.385-1.2-2.758-2.386t-2.725-2.363Zm-65.739-60.265q6.8,6.683,14.082,13.58,7.378,6.987,15.291,14.24,8.019,7.355,16.623,15.033,8.728,7.793,18.1,15.974h3.821q-9.413-8.189-18.175-15.974-8.646-7.685-16.7-15.033-7.952-7.259-15.36-14.24-7.321-6.9-14.144-13.58Zm-47.05-51q4.881,5.987,10.121,12.011,5.29,6.086,10.967,12.247,5.734,6.228,11.885,12.573,6.219,6.418,12.886,13h3.532q-6.7-6.585-12.943-13-6.181-6.351-11.938-12.573-5.7-6.167-11.016-12.247-5.264-6.028-10.165-12.011Zm-33.834-48.336q3.5,5.981,7.264,11.863,3.8,5.928,7.886,11.788,4.121,5.908,8.555,11.782,4.47,5.925,9.272,11.849h3.324q-4.827-5.928-9.314-11.849-4.455-5.879-8.593-11.782-4.109-5.865-7.921-11.788-3.788-5.887-7.3-11.863Zm-24.023-50.617Zm0,0q2.444,6.523,5.107,12.831,2.677,6.345,5.586,12.5,2.925,6.194,6.092,12.23,3.189,6.074,6.634,12.019h3.175q-3.462-5.949-6.664-12.019-3.183-6.04-6.119-12.23-2.923-6.161-5.611-12.5-2.676-6.312-5.13-12.832Zm-14.453-48.2Zm0,0q.544,2.314,1.1,4.6t1.14,4.539q.578,2.257,1.176,4.483t1.215,4.43q1.056,3.766,2.167,7.451t2.284,7.312q1.174,3.626,2.406,7.18t2.531,7.058h3.068q-1.3-3.5-2.542-7.058t-2.416-7.18q-1.178-3.619-2.3-7.312t-2.177-7.451q-.619-2.2-1.219-4.43t-1.182-4.483q-.582-2.254-1.146-4.539t-1.108-4.6Zm-8.23-43.281h0Zm0,0q.849,5.627,1.774,11.074t1.925,10.746q1,5.3,2.081,10.436t2.242,10.141h3q-1.165-4.995-2.252-10.141t-2.09-10.436q-1.005-5.289-1.934-10.746t-1.782-11.075Zm-5.787-49.035q.573,6.4,1.208,12.595t1.339,12.2q.7,6.005,1.475,11.815t1.617,11.451h2.967q-.846-5.633-1.623-11.451t-1.482-11.815q-.706-6-1.346-12.2t-1.213-12.595Zm-3.639-56.021h0Zm0,0q.324,7.331.7,14.412t.823,13.94q.442,6.858.944,13.486t1.067,13.05h2.943q-.567-6.417-1.073-13.05t-.947-13.486q-.442-6.851-.826-13.94t-.708-14.412Zm-1.729-64.221q.1,8.408.258,16.534t.363,15.986q.208,7.861.47,15.457t.581,14.946h2.927q-.32-7.348-.583-14.946t-.473-15.457q-.209-7.857-.364-15.986t-.259-16.534Zm-.017-73.717h0Zm0,0q-.1,9.653-.144,18.987t-.05,18.358q0,9.026.047,17.749t.146,17.16h2.92q-.1-8.436-.148-17.16t-.047-17.749q0-9.025.049-18.358t.146-18.987Zm1.521-84.537q-.274,11.062-.506,21.764t-.42,21.051q-.19,10.348-.335,20.358t-.243,19.687h2.919q.1-9.68.245-19.687t.335-20.358q.19-10.352.422-21.051t.51-21.764Zm2.912-96.86h0q-.435,12.654-.833,24.909t-.756,24.1q-.359,11.85-.677,23.324t-.6,22.565h2.926q.279-11.1.6-22.565t.68-23.324q.361-11.86.76-24.1t.836-24.909Zm4.163-110.675q-.58,14.442-1.127,28.443t-1.058,27.543q-.512,13.543-.988,26.669t-.915,25.818h2.94q.441-12.707.919-25.818t.991-26.669q.515-13.558,1.063-27.543.55-14,1.133-28.443Zm5.283-126.028h0q-.709,16.418-1.39,32.35-.679,15.914-1.328,31.354-.648,15.421-1.265,30.381-.616,14.942-1.2,29.433h2.958q.586-14.494,1.206-29.434.619-14.962,1.27-30.381.651-15.443,1.333-31.354.684-15.934,1.4-32.35Zm6.279-143.142q-.822,18.6-1.62,36.68-.8,18.049-1.567,35.583-.77,17.507-1.512,34.509-.741,16.979-1.454,33.461h2.981q.717-16.486,1.461-33.462.746-17,1.518-34.509.774-17.534,1.575-35.583.8-18.077,1.627-36.68ZM2971,22.649q-.037.829-.073,1.656-.379,8.574-.752,17.013t-.74,16.725q-.367,8.288-.728,16.435-.118,2.679-.237,5.348t-.236,5.325q-.118,2.658-.235,5.3t-.233,5.28h3.01q.118-2.636.235-5.281t.235-5.3q.12-2.658.237-5.325t.237-5.348q.362-8.148.732-16.435t.743-16.725q.376-8.439.756-17.013.037-.827.073-1.656Z" transform="translate(-2947.268 -22.649)" fill="none"/>
    </clipPath>
    <linearGradient id="linear-gradient-4" x1="-6.422" y1="1.031" x2="-6.42" y2="1.031" xlink:href="#linear-gradient"/>
    <clipPath id="clip-path-6">
      <path id="Path_152" data-name="Path 152" d="M3045.247,1310.014l4.472,4.621q2.26,2.335,4.552,4.7l4.636,4.789,4.721,4.877,9.062,9.359q4.629,4.784,9.393,9.709l5.119,5.293h4.616q-2.593-2.668-5.146-5.293-4.792-4.927-9.446-9.709l-9.112-9.359-4.746-4.877-4.662-4.789-4.579-4.7-4.5-4.621Zm-53.8-55.835q5.876,6.145,12.022,12.542,6.216,6.47,12.72,13.218,6.58,6.827,13.47,13.958,6.973,7.218,14.28,14.77h4.376q-7.348-7.554-14.359-14.77-6.929-7.133-13.545-13.958-6.542-6.75-12.791-13.218-6.182-6.4-12.089-12.542Zm-46.349-49.2q1.085,1.177,2.182,2.363t2.21,2.386q1.113,1.2,2.236,2.409t2.265,2.434q4.165,4.471,8.49,9.074,4.359,4.643,8.887,9.431,4.565,4.829,9.31,9.815,4.785,5.031,9.756,10.231h4.081q-5-5.2-9.811-10.231-4.77-4.987-9.361-9.815-4.554-4.789-8.937-9.431-4.349-4.605-8.536-9.074l-2.277-2.434q-1.131-1.21-2.249-2.409t-2.222-2.386q-1.1-1.185-2.194-2.363Zm-52.882-60.265q5.466,6.683,11.327,13.58,5.936,6.987,12.3,14.24,6.451,7.355,13.372,15.033,7.022,7.793,14.558,15.974h3.821q-7.581-8.189-14.637-15.974-6.962-7.685-13.446-15.033-6.405-7.259-12.369-14.24-5.9-6.9-11.391-13.58Zm-37.85-51q3.927,5.987,8.141,12.011,4.258,6.086,8.823,12.247,4.613,6.228,9.561,12.573,5,6.418,10.367,13h3.532q-5.4-6.585-10.424-13-4.977-6.351-9.614-12.573-4.594-6.167-8.871-12.247-4.24-6.028-8.186-12.011Zm-27.217-48.336q2.81,5.981,5.843,11.863,3.056,5.928,6.344,11.788,3.315,5.908,6.881,11.782,3.6,5.925,7.459,11.849H2857q-3.887-5.928-7.5-11.849-3.587-5.879-6.919-11.782-3.308-5.865-6.379-11.788-3.051-5.887-5.876-11.863Zm-19.326-50.617h0Zm0,0q1.967,6.523,4.108,12.831,2.154,6.345,4.493,12.5,2.353,6.194,4.9,12.23,2.566,6.074,5.337,12.019h3.174q-2.788-5.949-5.366-12.019-2.564-6.04-4.929-12.23-2.353-6.161-4.518-12.5-2.155-6.312-4.132-12.832Zm-11.625-48.2Zm0,0q.437,2.314.887,4.6t.917,4.539q.467,2.257.946,4.483t.979,4.43q.849,3.766,1.742,7.451t1.838,7.312q.944,3.626,1.936,7.18t2.036,7.058h3.068q-1.049-3.5-2.047-7.058t-1.947-7.18q-.948-3.619-1.849-7.312t-1.752-7.451q-.5-2.2-.983-4.43t-.951-4.483q-.467-2.254-.922-4.539t-.893-4.6Zm-6.622-43.281h0Zm0,0q.684,5.627,1.428,11.074t1.548,10.746q.807,5.3,1.675,10.436t1.8,10.141h3q-.937-4.995-1.813-10.141t-1.684-10.436q-.809-5.289-1.558-10.746t-1.435-11.075Zm-4.655-49.035h0Zm0,0q.46,6.4.971,12.595t1.077,12.2q.567,6.005,1.187,11.815t1.3,11.451h2.969q-.682-5.633-1.308-11.451t-1.193-11.815q-.568-6-1.083-12.2t-.976-12.595ZM2782,798.212q.261,7.331.567,14.412t.663,13.94q.354,6.858.758,13.486t.859,13.05h2.942q-.458-6.417-.863-13.05t-.763-13.486q-.356-6.851-.665-13.94t-.571-14.412Zm-1.39-64.221h0Zm0,0q.082,8.408.207,16.534t.292,15.986q.166,7.861.378,15.457t.467,14.946h2.927q-.257-7.348-.47-14.946t-.38-15.457q-.169-7.857-.293-15.986t-.208-16.534Zm-.014-73.717h0Zm0,0q-.078,9.653-.118,18.987t-.039,18.358q0,9.026.039,17.749t.118,17.16h2.918q-.08-8.436-.118-17.16t-.039-17.749q0-9.025.041-18.358t.117-18.987Zm1.224-84.537q-.222,11.062-.407,21.764t-.34,21.051q-.151,10.348-.268,20.358t-.2,19.687h2.918q.081-9.68.2-19.687t.271-20.358q.152-10.352.34-21.051t.409-21.764Zm2.341-96.86h0Zm0,0q-.35,12.654-.67,24.908t-.608,24.1q-.288,11.85-.544,23.324t-.479,22.565h2.925q.225-11.1.483-22.565t.548-23.324q.289-11.86.611-24.1t.674-24.909Zm3.349-110.675q-.466,14.442-.906,28.443t-.852,27.543q-.412,13.543-.794,26.669t-.736,25.818h2.939q.354-12.707.74-25.818t.8-26.669q.415-13.558.856-27.543.442-14,.912-28.443Zm4.25-126.028h0q-.571,16.418-1.119,32.35-.545,15.914-1.067,31.354-.521,15.421-1.018,30.381-.5,14.942-.965,29.433h2.958q.472-14.494.97-29.434.5-14.962,1.024-30.381.524-15.443,1.074-31.354.549-15.934,1.124-32.35Zm5.05-143.142h0Zm0,0q-.663,18.6-1.3,36.68-.641,18.049-1.261,35.583-.619,17.507-1.216,34.509-.6,16.979-1.17,33.461h2.982q.576-16.486,1.176-33.462.6-17,1.223-34.509.623-17.534,1.268-35.583.645-18.077,1.311-36.68Zm2.718-76.383-.059,1.656q-.305,8.574-.606,17.013t-.595,16.725q-.3,8.288-.585,16.435-.1,2.679-.19,5.348t-.189,5.325q-.1,2.658-.189,5.3t-.188,5.28h3.01q.094-2.636.189-5.281t.189-5.3q.1-2.658.191-5.325t.191-5.348q.292-8.148.588-16.435t.6-16.725q.3-8.439.608-17.013.03-.827.059-1.656Z" transform="translate(-2780.44 -22.649)" fill="none"/>
    </clipPath>
    <linearGradient id="linear-gradient-5" x1="-6.86" y1="1.012" x2="-6.858" y2="1.012" xlink:href="#linear-gradient"/>
    <clipPath id="clip-path-7">
      <path id="Path_153" data-name="Path 153" d="M2814.042,1310.014l3.385,4.621,3.446,4.7,3.509,4.789,3.573,4.877,6.858,9.359q3.5,4.784,7.11,9.709l3.875,5.293h4.531l-3.9-5.293q-3.631-4.927-7.16-9.709l-6.908-9.359q-1.813-2.457-3.6-4.877t-3.534-4.789l-3.47-4.7-3.409-4.621Zm-40.718-55.835h0Zm0,0q4.447,6.145,9.1,12.542,4.7,6.47,9.627,13.218,4.981,6.827,10.2,13.958,5.278,7.218,10.809,14.77h4.3q-5.571-7.554-10.886-14.77-5.254-7.133-10.269-13.958-4.959-6.75-9.7-13.218-4.687-6.4-9.164-12.542Zm-35.083-49.2q.822,1.177,1.652,2.363t1.673,2.386l1.693,2.409q.853,1.212,1.714,2.434,3.152,4.471,6.425,9.074,3.3,4.643,6.727,9.431,3.455,4.829,7.046,9.815,3.622,5.031,7.386,10.231h4q-3.79-5.2-7.439-10.231-3.615-4.987-7.1-9.815-3.453-4.789-6.776-9.431-3.3-4.605-6.471-9.074-.868-1.221-1.726-2.434t-1.7-2.409q-.849-1.2-1.685-2.386t-1.663-2.363Zm-40.026-60.265q4.137,6.683,8.573,13.58,4.493,6.987,9.31,14.24,4.884,7.355,10.122,15.033,5.313,7.793,11.017,15.974h3.752q-5.747-8.189-11.1-15.974-5.279-7.685-10.194-15.033-4.854-7.259-9.377-14.24-4.47-6.9-8.635-13.58Zm-28.648-51q2.972,5.987,6.163,12.011,3.221,6.086,6.677,12.247,3.492,6.228,7.237,12.573,3.787,6.418,7.847,13h3.467q-4.091-6.585-7.9-13-3.773-6.351-7.288-12.573-3.483-6.167-6.726-12.247-3.214-6.028-6.206-12.011Zm-20.6-48.336q2.128,5.981,4.423,11.863,2.312,5.928,4.8,11.788,2.51,5.908,5.208,11.782,2.723,5.925,5.646,11.849h3.263q-2.945-5.928-5.686-11.849-2.721-5.879-5.246-11.782-2.51-5.865-4.836-11.788-2.312-5.887-4.455-11.863Zm-14.627-50.617Zm0,0q1.489,6.523,3.11,12.831,1.63,6.345,3.4,12.5,1.781,6.194,3.709,12.23,1.942,6.074,4.04,12.019h3.116q-2.115-5.949-4.069-12.019-1.943-6.04-3.735-12.23-1.785-6.161-3.426-12.5-1.634-6.312-3.132-12.832Zm-8.8-48.2Zm0,0q.331,2.314.672,4.6t.694,4.539q.353,2.257.717,4.483t.739,4.43q.643,3.766,1.32,7.451t1.391,7.312q.713,3.626,1.464,7.18t1.541,7.058h3.012q-.794-3.5-1.553-7.058t-1.475-7.18q-.719-3.619-1.4-7.312t-1.328-7.451q-.378-2.2-.745-4.43t-.721-4.483q-.356-2.254-.7-4.539t-.677-4.6Zm-5.011-43.281Zm0,0q.519,5.627,1.081,11.074t1.172,10.746q.609,5.3,1.267,10.436t1.366,10.141h2.949q-.711-4.995-1.375-10.141t-1.276-10.436q-.613-5.289-1.18-10.746t-1.089-11.075Zm-3.523-49.035q.349,6.4.735,12.595t.815,12.2q.43,6.005.9,11.815t.984,11.451h2.913q-.517-5.633-.99-11.451t-.905-11.815q-.432-6-.822-12.2t-.74-12.595Zm-2.215-56.021q.2,7.331.429,14.412t.5,13.94q.27,6.858.575,13.486t.65,13.05h2.889q-.346-6.417-.655-13.05t-.578-13.486q-.27-6.851-.5-13.94t-.433-14.412Zm-1.052-64.221q.063,8.408.157,16.534t.221,15.986q.127,7.861.287,15.457t.354,14.946h2.873q-.195-7.348-.356-14.946t-.288-15.457q-.128-7.857-.223-15.986t-.158-16.534Zm-.01-73.717Zm0,0q-.057,9.653-.088,18.987t-.029,18.358q0,9.026.028,17.749t.09,17.16h2.865q-.06-8.436-.09-17.16t-.028-17.749q0-9.025.031-18.358t.087-18.987Zm.927-84.537q-.167,11.062-.308,21.764t-.257,21.051q-.115,10.348-.2,20.358t-.149,19.687h2.866q.061-9.68.15-19.687t.2-20.358q.116-10.352.258-21.051t.31-21.764Zm1.772-96.86h0q-.264,12.654-.507,24.909t-.46,24.1q-.218,11.85-.412,23.324t-.364,22.565h2.873q.17-11.1.366-22.565t.416-23.324q.22-11.86.463-24.1t.511-24.909Zm2.535-110.675q-.354,14.442-.687,28.443t-.645,27.543q-.311,13.543-.6,26.669t-.557,25.818h2.885q.27-12.707.561-25.818t.606-26.669q.313-13.558.649-27.543.334-14,.691-28.443Zm3.217-126.028h0q-.432,16.418-.846,32.35-.415,15.914-.808,31.354-.4,15.421-.771,30.381-.376,14.942-.731,29.433h2.9q.357-14.494.735-29.434.379-14.962.776-30.381.4-15.443.814-31.354.417-15.934.852-32.35ZM2626,99.032q-.5,18.6-.986,36.68-.485,18.049-.955,35.583-.468,17.507-.92,34.509-.45,16.979-.886,33.461h2.927q.438-16.486.892-33.462.455-17,.927-34.509.471-17.534.961-35.583.489-18.077.994-36.68Zm2.057-76.383q-.022.829-.044,1.656-.23,8.574-.458,17.013t-.45,16.725q-.223,8.288-.443,16.435-.071,2.679-.144,5.348t-.144,5.325q-.071,2.658-.142,5.3t-.143,5.28h2.954q.071-2.636.144-5.281t.144-5.3q.073-2.658.144-5.325t.146-5.348q.221-8.148.446-16.435t.455-16.725q.228-8.439.461-17.013.022-.827.044-1.656Z" transform="translate(-2613.613 -22.649)" fill="none"/>
    </clipPath>
    <linearGradient id="linear-gradient-6" x1="-8.483" y1="1.012" x2="-8.48" y2="1.012" xlink:href="#linear-gradient"/>
    <clipPath id="clip-path-8">
      <path id="Path_154" data-name="Path 154" d="M2582.833,1310.014l2.3,4.621q1.161,2.335,2.339,4.7l2.382,4.789q1.2,2.42,2.426,4.877l4.655,9.359q2.38,4.784,4.826,9.709,1.306,2.625,2.63,5.293h4.536q-1.338-2.668-2.657-5.293-2.474-4.927-4.877-9.709l-4.705-9.359-2.451-4.877q-1.213-2.412-2.407-4.789l-2.364-4.7-2.323-4.621Zm-27.639-55.835q3.019,6.145,6.176,12.542,3.193,6.47,6.535,13.218,3.381,6.827,6.921,13.958,3.583,7.218,7.337,14.77h4.3q-3.794-7.554-7.414-14.77-3.579-7.133-6.995-13.958-3.376-6.75-6.6-13.218-3.191-6.4-6.241-12.542Zm-23.813-49.2q.558,1.177,1.121,2.363t1.135,2.386q.571,1.2,1.149,2.409t1.164,2.434q2.139,4.471,4.362,9.074,2.24,4.643,4.566,9.431,2.346,4.829,4.783,9.815,2.458,5.031,5.012,10.231h4.01q-2.581-5.2-5.065-10.231-2.464-4.987-4.834-9.815-2.352-4.789-4.615-9.431-2.244-4.605-4.408-9.074-.59-1.221-1.176-2.434l-1.162-2.409q-.576-1.2-1.147-2.386t-1.133-2.363Zm-27.17-60.265q2.808,6.683,5.819,13.58,3.051,6.987,6.32,14.24,3.316,7.355,6.872,15.033,3.606,7.793,7.479,15.974h3.755q-3.915-8.189-7.558-15.974-3.6-7.685-6.943-15.033-3.307-7.259-6.387-14.24-3.045-6.9-5.882-13.58Zm-19.447-51h0Zm0,0q2.017,5.987,4.183,12.011,2.187,6.086,4.533,12.247,2.369,6.228,4.912,12.573,2.571,6.418,5.326,13h3.47q-2.785-6.585-5.381-13-2.571-6.351-4.966-12.573-2.371-6.167-4.58-12.247-2.189-6.028-4.227-12.011Zm-13.983-48.336q1.443,5.981,3,11.863,1.571,5.928,3.26,11.788,1.7,5.908,3.536,11.782,1.848,5.925,3.832,11.849h3.266q-2.006-5.928-3.874-11.849-1.851-5.879-3.572-11.782-1.709-5.865-3.294-11.788-1.574-5.887-3.034-11.863Zm-9.93-50.617h0Zm0,0q1.011,6.523,2.111,12.831,1.106,6.345,2.309,12.5,1.21,6.194,2.519,12.23,1.317,6.074,2.742,12.019h3.118q-1.441-5.949-2.771-12.019-1.324-6.04-2.545-12.23-1.214-6.161-2.332-12.5-1.114-6.312-2.134-12.832Zm-5.973-48.2Zm0,0q.225,2.314.456,4.6t.471,4.539q.24,2.257.487,4.483t.5,4.43q.437,3.766.9,7.451t.944,7.312q.484,3.626.994,7.18t1.047,7.058h3.014q-.541-3.5-1.056-7.058t-1.006-7.18q-.489-3.619-.954-7.312t-.9-7.451q-.258-2.2-.507-4.43t-.492-4.483q-.243-2.254-.476-4.539t-.462-4.6Zm-3.4-43.281Zm0,0q.353,5.627.734,11.074t.8,10.746q.415,5.3.86,10.436t.927,10.141h2.952q-.485-4.995-.937-10.141t-.869-10.436q-.418-5.289-.805-10.746t-.741-11.075Zm-2.391-49.035q.236,6.4.5,12.595t.553,12.2q.291,6.005.611,11.815t.667,11.451h2.916q-.353-5.633-.674-11.451t-.617-11.815q-.294-6-.559-12.2t-.5-12.595Zm-1.5-56.021q.135,7.331.292,14.412t.341,13.94q.182,6.858.389,13.486t.441,13.05h2.892q-.235-6.417-.446-13.05t-.393-13.486q-.184-6.851-.344-13.94t-.294-14.412Zm-.713-64.221q.042,8.408.105,16.534t.151,15.986q.085,7.861.194,15.457t.24,14.946h2.875q-.133-7.348-.243-14.946t-.2-15.457q-.087-7.857-.151-15.986t-.108-16.534Zm-.008-73.717q-.038,9.653-.06,18.987t-.02,18.358q0,9.026.019,17.749t.061,17.16h2.868q-.04-8.436-.061-17.16t-.02-17.749q0-9.025.021-18.358t.06-18.987Zm.629-84.537q-.113,11.062-.21,21.764t-.174,21.051q-.077,10.348-.138,20.358t-.1,19.687h2.868q.041-9.68.1-19.687t.14-20.358q.078-10.352.176-21.051t.211-21.764Zm1.2-96.86h0q-.181,12.654-.344,24.909t-.313,24.1q-.148,11.85-.28,23.324t-.247,22.565h2.875q.116-11.1.249-22.565t.283-23.324q.151-11.86.316-24.1t.348-24.909Zm1.721-110.675q-.24,14.442-.466,28.443t-.437,27.543q-.211,13.543-.408,26.669t-.378,25.818h2.888q.183-12.707.382-25.818t.413-26.669q.213-13.558.442-27.543.229-14,.471-28.443Zm2.183-126.028h0Zm0,0q-.294,16.418-.575,32.349-.28,15.914-.549,31.354-.268,15.421-.523,30.381-.253,14.942-.5,29.433h2.906q.244-14.494.5-29.434.258-14.962.529-30.381.271-15.443.554-31.354.285-15.934.582-32.35Zm2.594-143.142h0Zm0,0q-.34,18.6-.67,36.68-.328,18.049-.648,35.583-.317,17.507-.624,34.509-.307,16.979-.6,33.461h2.929q.3-16.486.607-33.462.31-17,.632-34.509.323-17.534.655-35.583.333-18.077.676-36.68Zm1.4-76.383q-.016.829-.031,1.656-.157,8.574-.311,17.013t-.306,16.725q-.151,8.288-.3,16.435-.048,2.679-.1,5.348t-.1,5.325q-.048,2.658-.1,5.3t-.1,5.28h2.957q.049-2.636.1-5.281t.1-5.3q.048-2.658.1-5.325t.1-5.348q.151-8.148.3-16.435t.309-16.725q.157-8.439.314-17.013.016-.827.031-1.656Z" transform="translate(-2446.781 -22.649)" fill="none"/>
    </clipPath>
    <linearGradient id="linear-gradient-7" x1="-11.594" y1="1.012" x2="-11.589" y2="1.012" xlink:href="#linear-gradient"/>
    <clipPath id="clip-path-9">
      <path id="Path_155" data-name="Path 155" d="M2351.536,1310.014q.6,2.294,1.21,4.621t1.232,4.7l1.254,4.789q.634,2.42,1.278,4.877,1.208,4.612,2.452,9.359,1.252,4.784,2.542,9.709.687,2.625,1.384,5.293h4.616q-.711-2.668-1.413-5.293-1.315-4.927-2.594-9.709-1.268-4.746-2.5-9.359-.658-2.457-1.3-4.877l-1.28-4.789-1.258-4.7q-.621-2.327-1.234-4.621Zm-14.556-55.835q1.592,6.145,3.254,12.542,1.682,6.47,3.441,13.218,1.781,6.827,3.645,13.958,1.887,7.218,3.864,14.77h4.377q-2.017-7.554-3.943-14.77-1.9-7.133-3.719-13.958-1.8-6.75-3.511-13.218-1.7-6.4-3.32-12.542Zm-12.541-49.2q.3,1.177.591,2.363t.6,2.386q.3,1.2.605,2.409t.613,2.434q1.126,4.471,2.3,9.074,1.18,4.643,2.4,9.431,1.236,4.829,2.52,9.815,1.294,5.031,2.64,10.231h4.081q-1.373-5.2-2.694-10.231-1.31-4.987-2.571-9.815-1.249-4.789-2.454-9.431-1.194-4.605-2.344-9.074-.313-1.221-.625-2.434t-.617-2.409q-.307-1.2-.61-2.386t-.6-2.363Zm-14.309-60.265q1.48,6.683,3.066,13.58,1.606,6.987,3.328,14.24,1.745,7.355,3.618,15.033,1.9,7.793,3.94,15.974h3.822q-2.081-8.189-4.019-15.974-1.912-7.685-3.693-15.033-1.757-7.259-3.4-14.24-1.619-6.9-3.127-13.58Zm-10.24-51q1.063,5.987,2.2,12.011,1.151,6.086,2.386,12.247,1.249,6.228,2.587,12.573,1.354,6.418,2.805,13h3.532q-1.481-6.585-2.862-13-1.367-6.351-2.64-12.573-1.262-6.167-2.436-12.247-1.164-6.028-2.248-12.011Zm-7.365-48.336q.762,5.981,1.582,11.863.826,5.928,1.716,11.788.9,5.908,1.862,11.782.973,5.925,2.019,11.849h3.324q-1.068-5.928-2.06-11.849-.985-5.879-1.9-11.782-.908-5.865-1.752-11.788-.838-5.887-1.614-11.863Zm-5.229-50.617h0Zm0,0q.532,6.523,1.113,12.831.582,6.345,1.215,12.5.636,6.194,1.325,12.23.694,6.074,1.444,12.019h3.175q-.766-5.949-1.475-12.019-.7-6.04-1.353-12.23-.646-6.161-1.241-12.5-.591-6.312-1.134-12.832Zm-3.145-48.2Zm0,0q.117,2.314.24,4.6t.248,4.539q.127,2.257.256,4.483t.264,4.43q.229,3.766.472,7.451t.5,7.312q.255,3.626.524,7.18t.55,7.058h3.068q-.287-3.5-.561-7.058t-.535-7.18q-.261-3.619-.508-7.312t-.482-7.451q-.136-2.2-.27-4.43t-.26-4.483q-.129-2.254-.253-4.539t-.245-4.6Zm-1.792-43.281h0Zm0,0q.186,5.627.386,11.074t.419,10.746q.218,5.3.453,10.436t.488,10.141h3q-.259-4.995-.5-10.141t-.462-10.436q-.221-5.289-.428-10.746t-.394-11.075Zm-1.259-49.035q.124,6.4.263,12.595t.291,12.2q.155,6.005.322,11.815t.351,11.451h2.969q-.188-5.633-.359-11.451t-.328-11.815q-.157-6-.3-12.2t-.267-12.595Zm-.792-56.021q.07,7.331.154,14.412t.179,13.94q.1,6.858.205,13.486t.233,13.05h2.943q-.126-6.417-.238-13.05t-.209-13.486q-.1-6.851-.183-13.94t-.157-14.412Zm-.376-64.221q.022,8.408.056,16.534t.078,15.986q.046,7.861.1,15.457t.127,14.946h2.927q-.071-7.348-.129-14.946t-.1-15.457q-.046-7.857-.081-15.986t-.057-16.534Zm0-73.717q-.022,9.653-.032,18.987t-.01,18.358q0,9.026.01,17.749t.032,17.16h2.919q-.022-8.436-.032-17.16t-.011-17.749q0-9.025.011-18.358t.032-18.987Zm.331-84.537q-.06,11.062-.11,21.764t-.092,21.051q-.041,10.348-.072,20.358t-.053,19.687h2.919q.021-9.68.054-19.687t.075-20.358q.041-10.352.093-21.051t.113-21.764Zm.634-96.86h0q-.094,12.654-.181,24.909t-.165,24.1q-.079,11.85-.147,23.324t-.13,22.565h2.926q.062-11.1.133-22.565t.15-23.324q.081-11.86.168-24.1t.185-24.909ZM2281.8,368.2q-.125,14.442-.245,28.443t-.231,27.543q-.111,13.543-.215,26.669t-.2,25.818h2.939q.1-12.707.2-25.818t.219-26.669q.113-13.558.235-27.543.122-14,.25-28.443Zm1.15-126.028h0Zm0,0q-.155,16.418-.3,32.349-.147,15.914-.289,31.354-.141,15.421-.275,30.381-.135,14.942-.262,29.433h2.959q.129-14.494.267-29.434.137-14.962.28-30.381.145-15.443.3-31.354.151-15.934.309-32.35Zm1.367-143.142Zm0,0q-.179,18.6-.353,36.68-.174,18.049-.341,35.583-.168,17.507-.329,34.509-.162,16.979-.317,33.461h2.982q.158-16.486.323-33.462.165-17,.336-34.509.17-17.534.348-35.583.176-18.077.36-36.68Zm.735-76.383-.016,1.656q-.082,8.574-.163,17.013t-.161,16.725q-.08,8.288-.159,16.435-.024,2.679-.051,5.348t-.051,5.325q-.026,2.658-.052,5.3t-.051,5.28h3.01q.025-2.636.052-5.281t.052-5.3q.026-2.658.052-5.325t.053-5.348q.081-8.148.161-16.435t.165-16.725q.081-8.439.167-17.013l.016-1.656Z" transform="translate(-2279.887 -22.649)" fill="none"/>
    </clipPath>
    <linearGradient id="linear-gradient-8" x1="-19.992" y1="1.012" x2="-19.983" y2="1.012" xlink:href="#linear-gradient"/>
    <clipPath id="clip-path-10">
      <path id="Path_156" data-name="Path 156" d="M2120.327,1310.014Zm0,0q.061,2.294.123,4.621t.125,4.7q.062,2.377.127,4.789t.13,4.877q.122,4.612.248,9.359.128,4.784.258,9.709.069,2.625.141,5.293h4.617q-.085-2.668-.168-5.293-.158-4.927-.311-9.709-.152-4.746-.3-9.359-.079-2.457-.156-4.877t-.153-4.789q-.076-2.368-.151-4.7t-.147-4.621Zm-1.478-55.835h0Zm0,0q.161,6.145.33,12.542.172,6.47.35,13.218.18,6.827.369,13.958.192,7.218.392,14.77h4.377q-.241-7.554-.471-14.77-.227-7.133-.445-13.958-.214-6.75-.42-13.218-.2-6.4-.4-12.542Zm-1.273-49.2q.03,1.177.06,2.363t.061,2.386q.03,1.2.062,2.409t.062,2.434q.114,4.471.233,9.074.12,4.643.243,9.431.126,4.829.257,9.815.13,5.031.267,10.231h4.081q-.164-5.2-.322-10.231-.155-4.987-.306-9.815-.151-4.789-.294-9.431-.141-4.605-.28-9.074-.038-1.221-.074-2.434t-.074-2.409q-.036-1.2-.073-2.386t-.072-2.363Zm-1.452-60.265h0Zm0,0q.15,6.683.311,13.58.162,6.987.338,14.24.177,7.355.367,15.033.194,7.793.4,15.974h3.822q-.248-8.189-.48-15.974-.228-7.685-.441-15.033-.209-7.259-.406-14.24-.194-6.9-.374-13.58Zm-1.04-51q.107,5.987.224,12.011.116,6.086.242,12.247.127,6.228.263,12.573.137,6.418.285,13h3.531q-.177-6.585-.342-13-.164-6.351-.316-12.573-.15-6.167-.291-12.247-.138-6.028-.268-12.011Zm-.747-48.336q.077,5.981.16,11.863.084,5.928.174,11.788.091,5.908.19,11.782.1,5.925.2,11.849h3.324q-.128-5.928-.247-11.849-.119-5.879-.227-11.782-.109-5.865-.21-11.788-.1-5.887-.193-11.863Zm-.531-50.617Zm0,0q.054,6.523.113,12.831.059,6.345.124,12.5.064,6.194.135,12.23.07,6.074.147,12.019h3.174q-.091-5.949-.176-12.019-.084-6.04-.161-12.23-.077-6.161-.148-12.5-.07-6.312-.136-12.832Zm-.32-48.2Zm0,0q.013,2.314.025,4.6t.025,4.539q.013,2.257.027,4.483t.026,4.43q.023,3.766.048,7.451t.05,7.312q.027,3.626.054,7.18t.055,7.058h3.068q-.034-3.5-.067-7.058t-.064-7.18q-.031-3.619-.061-7.312t-.058-7.451q-.016-2.2-.032-4.43t-.031-4.483q-.015-2.254-.03-4.539t-.029-4.6Zm-.181-43.281Zm0,0q.018,5.627.039,11.074t.043,10.746q.022,5.3.045,10.436t.05,10.141h3q-.03-4.995-.059-10.141t-.055-10.436q-.026-5.289-.051-10.746t-.048-11.075Zm-.128-49.035q.014,6.4.027,12.595t.03,12.2q.015,6.005.032,11.815t.036,11.451h2.968q-.022-5.633-.043-11.451t-.039-11.815q-.019-6-.035-12.2t-.032-12.595Zm-.08-56.021q.007,7.331.016,14.412t.018,13.94q.01,6.858.021,13.486t.023,13.05h2.943q-.015-6.417-.028-13.05t-.025-13.486q-.011-6.851-.021-13.94t-.02-14.412Zm-.038-64.221q0,8.408.006,16.534t.008,15.986q0,7.861.011,15.457t.013,14.946h2.926q-.008-7.348-.015-14.946T2116,766.511q-.006-7.857-.01-15.986t-.007-16.534Zm0-73.717q0,9.653,0,18.987t0,18.358q0,9.026,0,17.749t0,17.16h2.919q0-8.436,0-17.16t0-17.749q0-9.025,0-18.358t0-18.987Zm.033-84.537q-.005,11.062-.011,21.764t-.009,21.051q0,10.348-.007,20.358t-.006,19.687h2.919q0-9.68.007-19.687t.008-20.358q0-10.352.011-21.051t.014-21.764Zm.064-96.86h0q-.009,12.654-.018,24.909t-.018,24.1q-.007,11.85-.014,23.324t-.014,22.565h2.926q.008-11.1.017-22.565t.017-23.324q.011-11.86.021-24.1t.022-24.909Zm.092-110.675q-.012,14.442-.025,28.443t-.023,27.543q-.012,13.543-.022,26.669t-.02,25.818h2.939q.012-12.707.024-25.818t.026-26.669q.014-13.558.028-27.543.015-14,.031-28.443Zm.117-126.028h0q-.015,16.418-.031,32.35-.015,15.914-.029,31.354-.015,15.421-.028,30.381-.014,14.942-.026,29.433h2.957q.015-14.494.032-29.434.016-14.962.033-30.381.017-15.443.035-31.354.019-15.934.037-32.35Zm.138-143.142h0Zm0,0q-.018,18.6-.036,36.68-.017,18.049-.034,35.583-.016,17.507-.033,34.509-.017,16.979-.032,33.461h2.981q.02-16.486.039-33.462.019-17,.04-34.509.02-17.534.042-35.583.021-18.077.043-36.68Zm.074-76.383,0,1.656q-.008,8.574-.016,17.013t-.017,16.725q-.007,8.288-.015,16.435,0,2.679-.006,5.348t0,5.325q0,2.658,0,5.3t-.005,5.28h3.009q0-2.636.006-5.281t.006-5.3q0-2.658.006-5.325t.007-5.348q.009-8.148.019-16.435t.019-16.725q.011-8.439.02-17.013,0-.827,0-1.656Z" transform="translate(-2113.056 -22.649)" fill="none"/>
    </clipPath>
    <linearGradient id="linear-gradient-9" x1="-124.501" y1="1.012" x2="-124.442" y2="1.012" xlink:href="#linear-gradient"/>
    <clipPath id="clip-path-11">
      <path id="Path_157" data-name="Path 157" d="M1869.17,1310.014l-.964,4.621-.982,4.7-1,4.789q-.5,2.42-1.018,4.877-.963,4.612-1.954,9.359-1,4.784-2.026,9.709l-1.1,5.293h4.536q.543-2.668,1.076-5.293l1.974-9.709q.967-4.746,1.905-9.359.5-2.457.993-4.877t.974-4.789q.482-2.368.957-4.7t.94-4.621Zm11.6-55.835q-1.265,6.145-2.592,12.542-1.34,6.47-2.743,13.218-1.419,6.827-2.9,13.958-1.5,7.218-3.079,14.77h4.3q1.535-7.554,3-14.77,1.45-7.133,2.833-13.958,1.367-6.75,2.673-13.218,1.293-6.4,2.528-12.542Zm10-49.2q-.234,1.177-.47,2.363t-.476,2.386q-.241,1.2-.482,2.409l-.489,2.434q-.9,4.471-1.83,9.074-.94,4.643-1.917,9.431-.985,4.829-2.008,9.815-1.031,5.031-2.1,10.231H1885q1.045-5.2,2.051-10.231,1-4.987,1.957-9.815.953-4.789,1.869-9.431.908-4.605,1.784-9.074.24-1.221.476-2.434l.47-2.409q.233-1.2.465-2.386t.458-2.363Zm11.4-60.265q-1.179,6.683-2.442,13.58-1.282,6.987-2.654,14.24-1.391,7.355-2.883,15.033-1.514,7.793-3.139,15.974h3.755q1.587-8.189,3.061-15.974,1.456-7.685,2.81-15.033,1.339-7.259,2.586-14.24,1.232-6.9,2.381-13.58Zm8.161-51q-.846,5.987-1.755,12.011-.918,6.086-1.9,12.247-.994,6.228-2.062,12.573-1.079,6.418-2.235,13h3.47q1.127-6.585,2.179-13,1.041-6.351,2.01-12.573.96-6.167,1.855-12.247.886-6.028,1.711-12.011Zm5.87-48.336q-.606,5.981-1.26,11.863-.659,5.928-1.368,11.788-.716,5.908-1.484,11.782-.774,5.925-1.608,11.849h3.265q.814-5.928,1.569-11.849.749-5.879,1.446-11.782.693-5.865,1.334-11.788.637-5.887,1.229-11.863Zm4.167-50.617h0q-.424,6.524-.886,12.832-.464,6.345-.969,12.5-.507,6.194-1.057,12.23-.553,6.074-1.151,12.019h3.119q.584-5.949,1.122-12.019.536-6.04,1.03-12.23.491-6.161.944-12.5.45-6.312.863-12.832Zm2.508-48.2h0q-.094,2.315-.191,4.6t-.2,4.539q-.1,2.257-.2,4.483t-.211,4.43q-.183,3.766-.376,7.451t-.4,7.312q-.2,3.626-.418,7.18t-.438,7.058h3.014q.219-3.5.428-7.058t.407-7.18q.2-3.619.386-7.312t.366-7.451q.1-2.2.207-4.43t.2-4.483q.1-2.254.193-4.539t.187-4.6Zm1.427-43.281Zm0,0q-.147,5.627-.308,11.074t-.334,10.746q-.174,5.3-.36,10.436t-.39,10.141h2.953q.2-4.995.379-10.141t.352-10.436q.169-5.289.326-10.746t.3-11.075Zm1-49.035q-.1,6.4-.209,12.595t-.233,12.2q-.121,6.005-.256,11.815t-.28,11.451h2.916q.143-5.633.274-11.451t.249-11.815q.119-6,.227-12.2t.2-12.595Zm.632-56.021q-.057,7.331-.122,14.412t-.144,13.94q-.075,6.858-.163,13.486t-.185,13.05h2.892q.1-6.417.181-13.05t.16-13.486q.074-6.851.138-13.94t.119-14.412Zm.3-64.221q-.02,8.408-.045,16.534t-.063,15.986q-.036,7.861-.082,15.457t-.1,14.946h2.876q.054-7.348.1-14.946t.079-15.457q.036-7.857.062-15.986t.044-16.534Zm0-73.717q.017,9.653.025,18.987t.008,18.358q0,9.026-.008,17.749t-.025,17.16h2.868q.017-8.436.025-17.16t.008-17.749q0-9.025-.008-18.358t-.025-18.987Zm-.264-84.537Zm0,0q.047,11.062.088,21.764t.073,21.051q.032,10.348.058,20.358t.043,19.687h2.867q-.016-9.68-.041-19.687t-.057-20.358q-.031-10.352-.072-21.051t-.084-21.764Zm-.5-96.86Zm0,0q.075,12.654.144,24.908t.131,24.1q.062,11.85.118,23.324t.1,22.565h2.876q-.047-11.1-.1-22.565t-.114-23.324q-.06-11.86-.128-24.1t-.141-24.909Zm-.722-110.675q.1,14.442.2,28.443t.183,27.543q.09,13.543.171,26.669t.159,25.818h2.888q-.074-12.707-.155-25.818t-.167-26.669q-.085-13.558-.179-27.543-.092-14-.19-28.443Zm-.917-126.028Zm0,0q.123,16.418.241,32.349.117,15.914.23,31.354.113,15.421.22,30.381.105,14.942.208,29.433h2.906q-.1-14.494-.2-29.434-.1-14.962-.215-30.381-.109-15.443-.224-31.354-.114-15.934-.235-32.35Zm-1.09-143.142q.142,18.6.281,36.68.138,18.049.272,35.583.134,17.507.262,34.509.129,16.979.253,33.461h2.929q-.121-16.486-.246-33.462-.126-17-.256-34.509-.13-17.534-.265-35.583-.135-18.077-.274-36.68Zm-.586-76.383q.007.829.013,1.656.066,8.574.13,17.013t.129,16.725q.062,8.288.125,16.435.021,2.679.042,5.348t.042,5.325q.02,2.658.041,5.3t.041,5.28h2.956q-.02-2.636-.039-5.281t-.04-5.3q-.019-2.658-.04-5.325t-.04-5.348q-.061-8.148-.123-16.435t-.125-16.725q-.063-8.439-.128-17.013-.006-.827-.012-1.656Z" transform="translate(-1860.123 -22.649)" fill="none"/>
    </clipPath>
    <linearGradient id="linear-gradient-10" x1="-20.706" y1="1.012" x2="-20.694" y2="1.012" xlink:href="#linear-gradient"/>
    <clipPath id="clip-path-12">
      <path id="Path_158" data-name="Path 158" d="M1615.475,1310.014l-2.052,4.621-2.088,4.7-2.127,4.789-2.167,4.877-4.156,9.359q-2.124,4.784-4.308,9.709-1.166,2.625-2.349,5.293h4.531l2.32-5.293q2.16-4.927,4.259-9.709,2.082-4.746,4.108-9.359,1.077-2.457,2.14-4.877l2.1-4.789q1.039-2.368,2.064-4.7l2.026-4.621Zm24.679-55.835h0Zm0,0q-2.7,6.145-5.516,12.542-2.851,6.47-5.835,13.218-3.018,6.827-6.179,13.958-3.2,7.218-6.551,14.77h4.3q3.313-7.554,6.474-14.77,3.123-7.133,6.106-13.958,2.949-6.75,5.767-13.218,2.785-6.4,5.45-12.542Zm21.262-49.2q-.5,1.177-1,2.363t-1.013,2.386q-.511,1.2-1.026,2.409t-1.039,2.434q-1.911,4.471-3.895,9.074-2,4.643-4.077,9.431-2.1,4.829-4.271,9.815-2.194,5.031-4.476,10.231h4.006q2.254-5.2,4.423-10.231,2.15-4.987,4.22-9.815,2.053-4.789,4.029-9.431,1.96-4.605,3.848-9.074.516-1.221,1.026-2.434l1.014-2.409q.5-1.2,1-2.386t.99-2.363Zm24.26-60.265q-2.508,6.683-5.2,13.58-2.723,6.987-5.643,14.24-2.96,7.355-6.135,15.033-3.221,7.793-6.677,15.974h3.752q3.418-8.189,6.6-15.974,3.139-7.685,6.062-15.033,2.888-7.259,5.576-14.24,2.658-6.9,5.135-13.58Zm17.363-51q-1.8,5.987-3.735,12.011-1.952,6.086-4.047,12.247-2.117,6.228-4.386,12.573-2.294,6.418-4.756,13h3.467q2.432-6.585,4.7-13,2.245-6.351,4.336-12.573,2.071-6.167,4-12.247,1.912-6.028,3.69-12.011Zm12.486-48.336q-1.291,5.981-2.681,11.863-1.4,5.928-2.91,11.788-1.522,5.908-3.157,11.782-1.65,5.925-3.423,11.849h3.263q1.753-5.928,3.381-11.849,1.617-5.879,3.12-11.782,1.491-5.865,2.876-11.788,1.375-5.887,2.649-11.863Zm8.865-50.617h0q-.9,6.524-1.885,12.832-.989,6.345-2.061,12.5-1.079,6.194-2.249,12.23-1.177,6.074-2.448,12.019h3.115q1.257-5.949,2.418-12.019,1.157-6.04,2.223-12.23,1.061-6.161,2.037-12.5.972-6.312,1.862-12.832Zm5.333-48.2h0Zm0,0q-.2,2.314-.408,4.6t-.42,4.539q-.213,2.257-.434,4.483t-.449,4.43q-.39,3.766-.8,7.451t-.843,7.312q-.435,3.626-.889,7.18t-.933,7.058h3.011q.474-3.5.924-7.058t.877-7.18q.426-3.619.834-7.312t.789-7.451q.227-2.2.443-4.43t.43-4.483q.211-2.254.416-4.539t.4-4.6Zm3.036-43.281h0q-.312,5.629-.654,11.075t-.711,10.746q-.37,5.3-.769,10.436t-.827,10.141h2.949q.424-4.995.818-10.141t.759-10.436q.364-5.289.7-10.746t.648-11.075Zm2.136-49.035q-.211,6.4-.446,12.595t-.495,12.2q-.259,6.005-.544,11.815t-.6,11.451h2.913q.309-5.633.59-11.451t.538-11.815q.257-6,.489-12.2t.441-12.595Zm1.342-56.021q-.119,7.331-.26,14.412t-.3,13.94q-.162,6.858-.348,13.486t-.394,13.05h2.888q.207-6.417.39-13.05t.344-13.486q.161-6.851.3-13.94t.257-14.412Zm.638-64.221q-.038,8.408-.094,16.534t-.134,15.986q-.077,7.861-.174,15.457t-.214,14.946h2.873q.117-7.348.212-14.946t.171-15.457q.076-7.857.132-15.986t.094-16.534Zm.007-73.717q.036,9.653.053,18.987t.019,18.358q0,9.026-.018,17.749t-.054,17.16h2.866q.036-8.436.053-17.16t.018-17.749q0-9.025-.018-18.358t-.052-18.987Zm-.562-84.537h0Zm0,0q.1,11.062.187,21.764t.155,21.051q.07,10.348.124,20.358t.09,19.687h2.866q-.037-9.68-.089-19.687t-.122-20.358q-.068-10.352-.154-21.051t-.184-21.764Zm-1.075-96.86Zm0,0q.161,12.654.307,24.908t.279,24.1q.133,11.85.25,23.324t.22,22.565h2.872q-.1-11.1-.217-22.565t-.247-23.324q-.131-11.86-.276-24.1t-.3-24.909ZM1733.714,368.2q.213,14.442.416,28.443t.39,27.543q.189,13.543.365,26.669t.337,25.818h2.886q-.161-12.707-.334-25.818t-.36-26.669q-.187-13.558-.386-27.543-.2-14-.412-28.443Zm-1.95-126.028Zm0,0q.261,16.418.512,32.349.251,15.914.49,31.354.24,15.421.466,30.381.228,14.942.443,29.433h2.9q-.212-14.494-.437-29.434-.226-14.962-.461-30.381-.237-15.443-.484-31.354-.25-15.934-.508-32.35Zm-2.318-143.142q.3,18.6.6,36.68.294,18.049.579,35.583.285,17.507.557,34.509.274,16.979.538,33.461h2.926q-.259-16.486-.53-33.462-.27-17-.551-34.509-.281-17.534-.572-35.583-.291-18.077-.591-36.68ZM1728.2,22.649q.014.829.028,1.656.14,8.574.277,17.013t.273,16.725q.136,8.288.268,16.435.045,2.679.088,5.348t.087,5.325q.045,2.658.087,5.3t.086,5.28h2.955q-.042-2.636-.085-5.281t-.086-5.3q-.042-2.658-.085-5.325T1732,74.478q-.131-8.148-.264-16.435t-.271-16.725q-.136-8.439-.275-17.013-.013-.827-.026-1.656Z" transform="translate(-1596.228 -22.649)" fill="none"/>
    </clipPath>
    <linearGradient id="linear-gradient-11" x1="-8.54" y1="1.012" x2="-8.535" y2="1.012" xlink:href="#linear-gradient"/>
    <clipPath id="clip-path-13">
      <path id="Path_159" data-name="Path 159" d="M1361.672,1310.014l-3.138,4.621-3.2,4.7q-1.616,2.377-3.254,4.789l-3.314,4.877-6.361,9.359q-3.249,4.784-6.593,9.709-1.784,2.625-3.594,5.293h4.617l3.565-5.293q3.318-4.927,6.542-9.709l6.311-9.359q1.656-2.457,3.288-4.877l3.228-4.789,3.171-4.7,3.114-4.621Zm37.764-55.835q-4.126,6.145-8.44,12.542-4.363,6.47-8.928,13.218-4.619,6.827-9.456,13.958-4.9,7.218-10.024,14.77h4.377q5.089-7.554,9.945-14.77,4.8-7.133,9.382-13.958,4.53-6.75,8.858-13.218,4.281-6.4,8.373-12.542Zm32.536-49.2q-.762,1.177-1.532,2.363t-1.55,2.386l-1.57,2.409q-.791,1.212-1.59,2.434-2.924,4.471-5.96,9.074-3.061,4.643-6.239,9.431-3.206,4.829-6.535,9.815-3.359,5.031-6.849,10.231h4.081q3.463-5.2,6.8-10.231,3.3-4.987,6.483-9.815,3.154-4.789,6.189-9.431,3.012-4.605,5.913-9.074.793-1.221,1.577-2.434l1.557-2.409q.773-1.2,1.538-2.386t1.521-2.363Zm37.122-60.265q-3.838,6.683-7.952,13.58-4.167,6.987-8.635,14.24-4.529,7.355-9.388,15.033-4.928,7.793-10.218,15.974h3.823q5.252-8.189,10.138-15.974,4.823-7.685,9.312-15.033,4.436-7.259,8.567-14.24,4.083-6.9,7.889-13.58Zm26.568-51q-2.756,5.987-5.714,12.011-2.987,6.086-6.193,12.247-3.238,6.228-6.712,12.573-3.51,6.418-7.276,13h3.532q3.736-6.585,7.219-13,3.447-6.351,6.659-12.573,3.181-6.167,6.144-12.247,2.936-6.028,5.67-12.011Zm19.106-48.336q-1.974,5.981-4.1,11.863-2.145,5.928-4.453,11.788-2.328,5.908-4.831,11.782-2.524,5.925-5.236,11.849h3.324q2.692-5.928,5.2-11.849,2.485-5.879,4.792-11.782,2.292-5.865,4.418-11.788,2.112-5.887,4.07-11.863Zm13.566-50.617h0q-1.381,6.524-2.884,12.832-1.513,6.345-3.154,12.5-1.653,6.194-3.441,12.23-1.8,6.074-3.746,12.019h3.175q1.93-5.949,3.716-12.019,1.775-6.04,3.414-12.23,1.631-6.161,3.128-12.5,1.494-6.312,2.862-12.832Zm8.161-48.2h0q-.305,2.315-.623,4.6t-.644,4.539q-.326,2.257-.664,4.483t-.686,4.43q-.6,3.766-1.223,7.451t-1.291,7.312q-.662,3.626-1.358,7.18t-1.43,7.058h3.069q.726-3.5,1.418-7.058t1.348-7.18q.656-3.619,1.28-7.312t1.214-7.451q.346-2.2.681-4.43t.659-4.483q.325-2.254.638-4.539t.618-4.6Zm4.647-43.281h0q-.48,5.629-1,11.075t-1.088,10.746q-.565,5.3-1.175,10.436t-1.266,10.141h3q.651-4.995,1.256-10.141t1.166-10.436q.559-5.289,1.078-10.746t.995-11.075Zm3.268-49.035q-.323,6.4-.682,12.595t-.757,12.2q-.4,6.005-.833,11.815t-.913,11.451h2.969q.473-5.633.906-11.451t.827-11.815q.393-6,.75-12.2t.677-12.595Zm2.054-56.021q-.183,7.331-.4,14.412t-.465,13.94q-.249,6.858-.532,13.486t-.6,13.05h2.943q.317-6.417.6-13.05t.529-13.486q.246-6.851.46-13.94t.395-14.412Zm.976-64.221q-.058,8.408-.145,16.534t-.2,15.986q-.119,7.861-.267,15.457t-.327,14.946h2.926q.179-7.348.326-14.946t.263-15.457q.118-7.857.2-15.986t.144-16.534Zm.01-73.717q.054,9.653.081,18.987t.028,18.358q0,9.026-.026,17.749t-.083,17.16h2.92q.054-8.436.082-17.16t.026-17.749q0-9.025-.028-18.358t-.081-18.987Zm-.86-84.537q.154,11.062.286,21.764t.237,21.051q.107,10.348.189,20.358t.138,19.687h2.919q-.055-9.68-.137-19.687t-.187-20.358q-.106-10.352-.236-21.051t-.283-21.764Zm-1.644-96.86h0Zm0,0q.244,12.654.47,24.908t.426,24.1q.2,11.85.383,23.324t.337,22.565h2.927q-.156-11.1-.334-22.565t-.38-23.324q-.2-11.86-.424-24.1t-.466-24.909ZM1542.595,368.2q.326,14.442.636,28.443t.6,27.543q.289,13.543.558,26.669t.516,25.818h2.939q-.244-12.707-.512-25.818t-.553-26.669q-.287-13.558-.593-27.543-.307-14-.632-28.443Zm-2.984-126.028Zm0,0q.4,16.418.785,32.349.383,15.914.75,31.354.365,15.421.714,30.381.349,14.942.678,29.433h2.958q-.327-14.494-.671-29.434-.346-14.962-.709-30.381-.364-15.443-.744-31.354-.382-15.934-.779-32.35Zm-3.546-143.142h0Zm0,0q.465,18.6.915,36.68.451,18.049.885,35.583.435,17.507.854,34.509.418,16.979.821,33.461h2.982q-.4-16.486-.815-33.462-.416-17-.847-34.509-.432-17.534-.877-35.583-.447-18.077-.908-36.68Zm-1.908-76.383q.021.829.042,1.656.214,8.574.425,17.013t.417,16.725q.207,8.288.412,16.435.066,2.679.134,5.348t.132,5.325q.067,2.658.133,5.3t.131,5.28h3.01q-.066-2.636-.131-5.281t-.131-5.3q-.067-2.658-.132-5.325t-.133-5.348q-.2-8.148-.408-16.435t-.414-16.725q-.21-8.439-.422-17.013-.021-.827-.041-1.656Z" transform="translate(-1332.221 -22.649)" fill="none"/>
    </clipPath>
    <linearGradient id="linear-gradient-12" x1="-4.69" y1="1.012" x2="-4.686" y2="1.012" xlink:href="#linear-gradient"/>
    <clipPath id="clip-path-14">
      <path id="Path_160" data-name="Path 160" d="M1107.977,1310.014l-4.226,4.621-4.3,4.7-4.381,4.789-4.461,4.877-8.564,9.359q-4.376,4.784-8.878,9.709-2.4,2.625-4.837,5.293h4.617q2.422-2.668,4.809-5.293,4.475-4.927,8.826-9.709l8.513-9.359,4.436-4.877,4.355-4.789,4.277-4.7,4.2-4.621Zm50.841-55.835h0Zm0,0q-5.553,6.145-11.363,12.542-5.873,6.47-12.021,13.218-6.22,6.827-12.73,13.958-6.591,7.218-13.5,14.77h4.377q6.866-7.554,13.416-14.77,6.476-7.133,12.657-13.958,6.112-6.75,11.95-13.218,5.776-6.4,11.3-12.542Zm43.8-49.2q-1.026,1.177-2.063,2.363t-2.088,2.386q-1.05,1.2-2.114,2.409t-2.14,2.434q-3.937,4.471-8.023,9.074-4.12,4.643-8.4,9.431-4.316,4.829-8.8,9.815-4.522,5.031-9.221,10.231h4.08q4.672-5.2,9.168-10.231,4.457-4.987,8.746-9.815,4.254-4.789,8.35-9.431,4.063-4.605,7.976-9.074l2.128-2.434,2.1-2.409q1.042-1.2,2.075-2.386t2.051-2.363Zm49.977-60.265q-5.166,6.683-10.705,13.58-5.609,6.987-11.625,14.24-6.1,7.355-12.638,15.033-6.635,7.793-13.757,15.974h3.822q7.085-8.189,13.677-15.974,6.507-7.685,12.564-15.033,5.983-7.259,11.557-14.24,5.51-6.9,10.643-13.58Zm35.771-51q-3.711,5.987-7.694,12.011-4.023,6.086-8.338,12.247-4.361,6.228-9.037,12.573-4.727,6.418-9.8,13h3.532q5.041-6.585,9.74-13,4.65-6.351,8.983-12.573,4.292-6.167,8.288-12.247,3.962-6.028,7.65-12.011Zm25.722-48.336q-2.658,5.981-5.522,11.863-2.887,5.928-5.995,11.788-3.133,5.908-6.5,11.782-3.4,5.925-7.05,11.849h3.324q3.631-5.928,7.008-11.849,3.352-5.879,6.465-11.782,3.092-5.865,5.96-11.788,2.85-5.887,5.49-11.863Zm18.264-50.617h0q-1.859,6.524-3.884,12.832-2.035,6.345-4.246,12.5-2.223,6.194-4.632,12.23-2.425,6.074-5.043,12.019h3.174q2.606-5.949,5.015-12.019,2.395-6.04,4.605-12.23,2.2-6.161,4.221-12.5,2.013-6.312,3.86-12.832Zm10.987-48.2h0q-.413,2.315-.839,4.6t-.866,4.539q-.44,2.257-.894,4.483t-.924,4.43q-.8,3.766-1.646,7.451t-1.738,7.312q-.892,3.626-1.829,7.18t-1.924,7.058h3.068q.978-3.5,1.913-7.058t1.819-7.18q.885-3.619,1.726-7.312t1.639-7.451q.465-2.2.918-4.43t.889-4.483q.438-2.254.862-4.539t.833-4.6Zm6.257-43.281h0Zm0,0q-.649,5.627-1.35,11.074t-1.464,10.746q-.763,5.3-1.583,10.436t-1.7,10.141h3q.878-4.995,1.695-10.141t1.573-10.436q.756-5.289,1.454-10.746t1.341-11.075Zm4.4-49.035q-.433,6.4-.918,12.595t-1.017,12.2q-.536,6.005-1.122,11.815t-1.229,11.451h2.968q.638-5.633,1.222-11.451t1.115-11.815q.531-6,1.013-12.2t.912-12.595Zm2.767-56.021q-.247,7.331-.536,14.412t-.625,13.94q-.337,6.858-.718,13.486t-.811,13.05h2.943q.428-6.417.807-13.05t.712-13.486q.334-6.851.622-13.94t.532-14.412Zm1.314-64.221q-.079,8.408-.2,16.534t-.276,15.986q-.158,7.861-.357,15.457t-.442,14.946h2.926q.241-7.348.439-14.946t.355-15.457q.158-7.857.274-15.986t.2-16.534Zm.013-73.717q.073,9.653.11,18.987t.037,18.358q0,9.026-.035,17.749t-.111,17.16h2.919q.074-8.436.111-17.16t.035-17.749q0-9.025-.037-18.358t-.109-18.987Zm-1.157-84.537q.207,11.062.385,21.764t.32,21.051q.143,10.348.254,20.358t.187,19.687H1361q-.075-9.68-.184-19.687t-.252-20.358q-.144-10.352-.319-21.051t-.383-21.764Zm-2.214-96.86h0Zm0,0q.331,12.654.634,24.908t.574,24.1q.272,11.85.515,23.324t.453,22.565h2.926q-.21-11.1-.45-22.565t-.512-23.324q-.271-11.86-.571-24.1t-.63-24.909ZM1351.556,368.2q.441,14.442.857,28.443t.8,27.543q.388,13.543.75,26.669t.7,25.818h2.939q-.332-12.707-.691-25.818t-.747-26.669q-.386-13.558-.8-27.543-.414-14-.853-28.443Zm-4.017-126.028Zm0,0q.539,16.418,1.056,32.349.516,15.914,1.01,31.354.492,15.421.961,30.381.468,14.942.912,29.433h2.958q-.441-14.494-.907-29.434-.467-14.962-.956-30.381-.491-15.443-1-31.354-.514-15.934-1.05-32.35Zm-4.774-143.142q.626,18.6,1.232,36.68.606,18.049,1.192,35.583.584,17.507,1.149,34.509.562,16.979,1.106,33.461h2.982q-.539-16.486-1.1-33.462-.56-17-1.142-34.509-.582-17.534-1.184-35.583-.6-18.077-1.226-36.68ZM1340.2,22.649q.028.829.056,1.656.288,8.574.572,17.013t.563,16.725q.28,8.288.554,16.435.09,2.679.18,5.348t.179,5.325q.089,2.658.178,5.3t.177,5.28h3.01q-.089-2.636-.177-5.281t-.177-5.3q-.089-2.658-.178-5.325t-.178-5.348q-.274-8.148-.551-16.435t-.559-16.725q-.282-8.439-.568-17.013-.026-.827-.055-1.656Z" transform="translate(-1068.326 -22.649)" fill="none"/>
    </clipPath>
    <linearGradient id="linear-gradient-13" x1="-2.803" y1="1.012" x2="-2.8" y2="1.012" xlink:href="#linear-gradient"/>
    <clipPath id="clip-path-15">
      <path id="Path_161" data-name="Path 161" d="M855.133,1310.014l-5.314,4.621-5.41,4.7-5.509,4.789-5.609,4.877q-5.308,4.612-10.767,9.359-5.5,4.784-11.162,9.709l-3.234,2.815v2.478h1.689q3.05-2.668,6.054-5.293,5.635-4.927,11.11-9.709l10.717-9.359,5.585-4.877,5.483-4.789,5.384-4.7,5.289-4.621Zm63.92-55.835q-6.983,6.145-14.285,12.542-7.386,6.47-15.114,13.218-7.818,6.827-16.005,13.958-8.286,7.218-16.968,14.77h4.3q8.643-7.554,16.889-14.77,8.152-7.133,15.932-13.958,7.695-6.75,15.045-13.218,7.272-6.4,14.219-12.542Zm55.072-49.2q-1.29,1.177-2.593,2.363t-2.625,2.386l-2.658,2.409-2.691,2.434q-4.949,4.471-10.087,9.074-5.18,4.643-10.56,9.431-5.426,4.829-11.062,9.815-5.686,5.031-11.593,10.231h4.009q5.882-5.2,11.541-10.231,5.61-4.987,11.01-9.815,5.355-4.789,10.512-9.431,5.115-4.605,10.04-9.074,1.346-1.221,2.679-2.434l2.645-2.409q1.314-1.2,2.613-2.386t2.582-2.363Zm62.834-60.265h0Zm0,0q-6.5,6.683-13.46,13.58-7.052,6.987-14.616,14.24-7.666,7.355-15.889,15.033-8.341,7.793-17.3,15.974h3.755q8.919-8.189,17.217-15.974,8.189-7.685,15.816-15.033,7.532-7.259,14.548-14.24,6.935-6.9,13.4-13.58Zm44.971-51q-4.664,5.987-9.673,12.011-5.056,6.086-10.482,12.247-5.481,6.228-11.36,12.573-5.944,6.418-12.317,13h3.47q6.348-6.585,12.26-13,5.854-6.351,11.308-12.573,5.4-6.167,10.434-12.247,4.987-6.028,9.629-12.011Zm32.339-48.336h0Zm0,0q-3.341,5.981-6.943,11.863-3.63,5.928-7.538,11.788-3.94,5.908-8.177,11.782-4.272,5.925-8.863,11.849h3.266q4.572-5.928,8.823-11.849,4.219-5.879,8.139-11.782,3.892-5.865,7.5-11.788,3.589-5.887,6.911-11.863Zm22.962-50.617h0q-2.337,6.524-4.882,12.832-2.561,6.345-5.339,12.5-2.8,6.194-5.824,12.23-3.048,6.074-6.341,12.019h3.119q3.28-5.949,6.312-12.019,3.016-6.04,5.8-12.23,2.768-6.161,5.314-12.5,2.534-6.312,4.859-12.832Zm13.815-48.2h0q-.519,2.315-1.055,4.6t-1.089,4.539q-.553,2.257-1.125,4.483t-1.162,4.43q-1.008,3.766-2.071,7.451t-2.183,7.312q-1.122,3.626-2.3,7.18t-2.419,7.058h3.014q1.233-3.5,2.409-7.058t2.289-7.18q1.114-3.619,2.173-7.312t2.062-7.451q.587-2.2,1.156-4.43t1.12-4.483q.551-2.254,1.084-4.539t1.05-4.6Zm7.866-43.281h0q-.814,5.629-1.7,11.075t-1.84,10.746q-.958,5.3-1.989,10.436t-2.144,10.141h2.952q1.105-4.995,2.134-10.141t1.979-10.436q.953-5.289,1.832-10.746t1.689-11.075Zm5.529-49.035q-.545,6.4-1.152,12.595t-1.281,12.2q-.673,6.005-1.411,11.815t-1.544,11.451h2.916q.8-5.633,1.539-11.451t1.4-11.815q.668-6,1.274-12.2t1.149-12.595Zm3.478-56.021q-.309,7.331-.673,14.412t-.786,13.94q-.423,6.858-.9,13.486t-1.021,13.05h2.892q.538-6.417,1.016-13.05t.9-13.486q.419-6.851.782-13.94t.671-14.412Zm1.652-64.221q-.1,8.408-.246,16.534t-.347,15.986q-.2,7.861-.449,15.457t-.555,14.946h2.876q.3-7.348.553-14.946t.447-15.457q.2-7.857.345-15.986t.246-16.534Zm.017-73.717q.091,9.653.137,18.987t.048,18.358q0,9.026-.045,17.749t-.141,17.16h2.869q.093-8.436.139-17.16t.045-17.749q0-9.025-.048-18.358t-.137-18.987Zm-1.455-84.537h0Zm0,0q.262,11.062.484,21.764t.4,21.051q.181,10.348.319,20.358t.234,19.687h2.869q-.094-9.68-.233-19.687t-.317-20.358q-.18-10.352-.4-21.051t-.482-21.764Zm-2.783-96.86Zm0,0q.416,12.654.8,24.908t.722,24.1q.342,11.85.648,23.324t.57,22.565h2.875q-.264-11.1-.568-22.565t-.643-23.324q-.342-11.86-.72-24.1t-.793-24.909ZM1161.371,368.2q.557,14.442,1.079,28.443t1.011,27.543q.489,13.543.944,26.669t.873,25.818h2.888q-.417-12.707-.87-25.818t-.94-26.669q-.487-13.558-1.007-27.543-.52-14-1.072-28.443Zm-5.049-126.028Zm0,0q.678,16.418,1.328,32.349.649,15.914,1.269,31.354.62,15.421,1.208,30.381.589,14.942,1.147,29.433h2.906q-.554-14.494-1.142-29.434-.587-14.962-1.2-30.381-.616-15.443-1.263-31.354-.648-15.934-1.323-32.35Zm-6-143.142q.786,18.6,1.55,36.68.761,18.049,1.5,35.583.735,17.507,1.444,34.509.71,16.979,1.391,33.461h2.929q-.677-16.486-1.383-33.462-.706-17-1.438-34.509-.733-17.534-1.49-35.583-.761-18.077-1.543-36.68Zm-3.23-76.383q.035.829.07,1.656.362,8.574.719,17.013t.708,16.725q.35,8.288.7,16.435.113,2.679.226,5.348t.225,5.325q.113,2.658.224,5.3t.224,5.28h2.957q-.111-2.636-.223-5.281t-.223-5.3q-.113-2.658-.224-5.325t-.225-5.348q-.344-8.148-.692-16.435t-.7-16.725q-.356-8.439-.716-17.013-.035-.827-.07-1.656Z" transform="translate(-808.13 -22.649)" fill="none"/>
    </clipPath>
    <linearGradient id="linear-gradient-14" x1="-1.703" y1="1.012" x2="-1.701" y2="1.012" xlink:href="#linear-gradient"/>
    <clipPath id="clip-path-16">
      <path id="Path_162" data-name="Path 162" d="M808.13,1204.975v1.182l1.556-1.182Zm73.483-60.265h0Zm0,0q-7.825,6.683-16.215,13.58-8.5,6.987-17.605,14.24-9.234,7.355-19.14,15.033T808.13,1203.3v.237h3.445q10.75-8.189,20.755-15.974,9.873-7.685,19.067-15.033,9.081-7.259,17.54-14.24,8.361-6.9,16.151-13.58Zm54.172-51q-5.619,5.987-11.653,12.011-6.092,6.086-12.627,12.247-6.6,6.228-13.685,12.573-7.159,6.418-14.836,13h3.47q7.651-6.585,14.781-13,7.056-6.351,13.632-12.573,6.512-6.167,12.579-12.247,6.012-6.028,11.609-12.011Zm38.956-48.336q-4.024,5.981-8.364,11.863-4.372,5.928-9.08,11.788-4.746,5.908-9.849,11.782-5.148,5.925-10.678,11.849h3.266q5.512-5.928,10.637-11.849,5.086-5.879,9.812-11.782,4.692-5.865,9.046-11.788,4.325-5.887,8.331-11.863Zm27.659-50.617h0q-2.814,6.524-5.88,12.832-3.082,6.345-6.431,12.5-3.367,6.194-7.014,12.23-3.672,6.074-7.638,12.019h3.118q3.954-5.949,7.609-12.019,3.636-6.04,6.989-12.23,3.337-6.161,6.407-12.5,3.054-6.312,5.858-12.832Zm16.641-48.2h0q-.625,2.315-1.27,4.6t-1.312,4.539q-.668,2.257-1.355,4.483t-1.4,4.43q-1.216,3.766-2.5,7.451t-2.631,7.312q-1.351,3.626-2.77,7.18T1002.9,993.6h3.014q1.487-3.5,2.9-7.058t2.76-7.18q1.344-3.619,2.621-7.312t2.485-7.451q.708-2.2,1.394-4.43t1.349-4.483q.664-2.254,1.308-4.539t1.265-4.6Zm9.476-43.281h0q-.981,5.629-2.044,11.075t-2.216,10.746q-1.155,5.3-2.4,10.436t-2.582,10.141h2.952q1.333-4.995,2.573-10.141t2.387-10.436q1.147-5.289,2.208-10.746t2.036-11.075Zm6.661-49.035q-.658,6.4-1.39,12.595t-1.542,12.2q-.809,6.005-1.7,11.815t-1.862,11.451h2.917q.967-5.633,1.853-11.451t1.694-11.815q.805-6,1.535-12.2t1.385-12.595Zm4.19-56.021h0Zm0,0q-.373,7.331-.812,14.412t-.947,13.94q-.508,6.858-1.086,13.486T1035.3,853.1h2.892q.648-6.417,1.224-13.05t1.082-13.486q.506-6.851.944-13.94t.808-14.412Zm1.989-64.221q-.119,8.408-.3,16.534t-.417,15.986q-.24,7.861-.542,15.457t-.669,14.946h2.876q.367-7.348.667-14.946t.539-15.457q.239-7.857.416-15.986t.3-16.534Zm.02-73.717q.109,9.653.166,18.987t.058,18.358q0,9.026-.055,17.749t-.169,17.16h2.869q.112-8.436.168-17.16t.054-17.749q0-9.025-.058-18.358t-.165-18.987Zm-1.752-84.537q.316,11.062.583,21.764t.485,21.051q.217,10.348.383,20.358t.281,19.687h2.869q-.114-9.68-.281-19.687t-.382-20.358q-.217-10.352-.483-21.051t-.58-21.764Zm-3.352-96.86Zm0,0q.5,12.654.959,24.908t.871,24.1q.411,11.85.78,23.324t.686,22.565h2.876q-.319-11.1-.684-22.565t-.777-23.324q-.412-11.86-.867-24.1t-.955-24.909ZM1031.48,368.2q.67,14.442,1.3,28.443T1034,424.188q.59,13.543,1.137,26.669t1.053,25.818h2.888q-.5-12.707-1.048-25.818t-1.133-26.669q-.588-13.558-1.215-27.543-.626-14-1.293-28.443ZM1025.4,242.174Zm0,0q.817,16.418,1.6,32.349.78,15.914,1.529,31.354.746,15.421,1.456,30.381.71,14.942,1.381,29.433h2.906q-.67-14.494-1.376-29.434-.708-14.962-1.451-30.381-.744-15.443-1.523-31.354-.78-15.934-1.593-32.35Zm-7.23-143.142q.946,18.6,1.866,36.68.917,18.049,1.8,35.583.886,17.507,1.74,34.509.854,16.979,1.674,33.461h2.929q-.817-16.486-1.667-33.462-.851-17-1.735-34.509-.883-17.534-1.8-35.583-.914-18.077-1.858-36.68Zm-3.891-76.383q.041.829.084,1.656.437,8.574.866,17.013t.853,16.725q.422,8.288.838,16.435.136,2.679.272,5.348t.271,5.325q.136,2.658.27,5.3t.269,5.28h2.956q-.132-2.636-.267-5.281t-.269-5.3q-.135-2.658-.27-5.325t-.271-5.348q-.415-8.148-.834-16.435t-.85-16.725q-.429-8.439-.862-17.013-.043-.827-.084-1.656Z" transform="translate(-808.13 -22.649)" fill="none"/>
    </clipPath>
    <linearGradient id="linear-gradient-15" x1="-2.627" y1="1.138" x2="-2.624" y2="1.138" xlink:href="#linear-gradient"/>
    <clipPath id="clip-path-17">
      <path id="Path_163" data-name="Path 163" d="M835.155,1045.37q-4.708,5.981-9.784,11.863-5.115,5.928-10.623,11.788-3.238,3.446-6.617,6.878v3.3q5.09-5.078,9.865-10.175,5.493-5.865,10.588-11.788,5.064-5.887,9.753-11.863Zm32.36-50.617h0q-3.293,6.524-6.881,12.832-3.606,6.345-7.523,12.5-3.94,6.194-8.207,12.23-4.3,6.074-8.937,12.019h3.177q4.629-5.949,8.908-12.019,4.255-6.04,8.18-12.23,3.907-6.161,7.5-12.5,3.576-6.312,6.857-12.832Zm19.469-48.2h0q-.732,2.315-1.486,4.6t-1.535,4.539q-.781,2.257-1.586,4.483t-1.636,4.43q-1.422,3.766-2.919,7.451t-3.078,7.312q-1.582,3.626-3.241,7.18t-3.41,7.058h3.072q1.739-3.5,3.4-7.058t3.23-7.18q1.573-3.619,3.068-7.312t2.909-7.451q.827-2.2,1.631-4.43t1.579-4.483q.778-2.254,1.531-4.539t1.48-4.6Zm11.086-43.281h0q-1.148,5.629-2.391,11.075t-2.594,10.746q-1.349,5.3-2.8,10.436t-3.02,10.141h3.007q1.558-4.995,3.011-10.141t2.793-10.436q1.344-5.289,2.585-10.746t2.383-11.075Zm7.794-49.035q-.77,6.4-1.626,12.595t-1.8,12.2q-.948,6.005-1.988,11.815t-2.177,11.451h2.971q1.132-5.633,2.17-11.451t1.982-11.815q.944-6,1.8-12.2t1.62-12.595Zm4.9-56.021q-.436,7.331-.95,14.412t-1.108,13.94q-.595,6.858-1.27,13.486T906,853.1h2.946q.758-6.417,1.433-13.05t1.266-13.486q.591-6.851,1.1-13.94t.946-14.412Zm2.328-64.221q-.139,8.408-.347,16.534t-.488,15.986q-.28,7.861-.634,15.457t-.782,14.946h2.93q.428-7.348.78-14.946t.632-15.457q.279-7.857.486-15.986t.346-16.534Zm.023-73.717q.128,9.653.194,18.987t.067,18.358q0,9.026-.064,17.749t-.2,17.16h2.922q.131-8.436.2-17.16t.063-17.749q0-9.025-.067-18.358t-.194-18.987Zm-2.05-84.537q.369,11.062.681,21.764t.567,21.051q.255,10.348.449,20.358t.329,19.687h2.922q-.133-9.68-.327-19.687t-.448-20.358q-.254-10.352-.565-21.051t-.679-21.764Zm-3.922-96.86Zm0,0q.587,12.654,1.122,24.908t1.019,24.1q.483,11.85.913,23.324t.8,22.565h2.929q-.373-11.1-.8-22.565t-.91-23.324q-.482-11.86-1.015-24.1t-1.118-24.909ZM901.535,368.2q.783,14.442,1.519,28.443t1.426,27.543q.688,13.543,1.33,26.669t1.232,25.818h2.943q-.59-12.707-1.229-25.818t-1.325-26.669q-.687-13.558-1.421-27.543-.733-14-1.514-28.443Zm-7.116-126.028Zm0,0q.955,16.418,1.872,32.349.915,15.914,1.789,31.354.874,15.421,1.7,30.381.83,14.942,1.616,29.433h2.961q-.784-14.494-1.61-29.434-.829-14.962-1.7-30.381-.871-15.443-1.783-31.354-.913-15.934-1.865-32.35ZM885.96,99.032q1.109,18.6,2.183,36.68,1.073,18.049,2.11,35.583Q891.29,188.8,892.29,205.8q1,16.979,1.959,33.461h2.985q-.957-16.486-1.953-33.462-1-17-2.029-34.509-1.034-17.534-2.1-35.583-1.072-18.077-2.177-36.68Zm-4.552-76.383q.05.829.1,1.656.51,8.574,1.013,17.013t1,16.725q.494,8.288.981,16.435.159,2.679.318,5.348t.317,5.325q.158,2.658.317,5.3t.314,5.28h3.013q-.156-2.636-.313-5.281t-.314-5.3q-.159-2.658-.317-5.325t-.317-5.348q-.484-8.148-.977-16.435t-.993-16.725q-.5-8.439-1.01-17.013-.048-.827-.1-1.656Z" transform="translate(-808.13 -22.649)" fill="none"/>
    </clipPath>
    <linearGradient id="linear-gradient-16" x1="-5.74" y1="1.275" x2="-5.733" y2="1.275" xlink:href="#linear-gradient"/>
    <clipPath id="clip-path-18">
      <path id="Path_164" data-name="Path 164" d="M885.763,117.778H808.13v3.3H2804.206v-3.3H885.763Z" transform="translate(-808.13 -117.777)" fill="none"/>
    </clipPath>
    <linearGradient id="linear-gradient-17" x1="-0.311" y1="386.426" x2="-0.311" y2="386.426" xlink:href="#linear-gradient"/>
    <clipPath id="clip-path-19">
      <path id="Path_165" data-name="Path 165" d="M894.249,304.595H808.13V307.5H2804.206v-2.909H894.249Z" transform="translate(-808.13 -304.594)" fill="none"/>
    </clipPath>
    <linearGradient id="linear-gradient-18" x1="-0.311" y1="388.625" x2="-0.311" y2="388.625" xlink:href="#linear-gradient"/>
    <clipPath id="clip-path-20">
      <path id="Path_166" data-name="Path 166" d="M901.4,469.151H808.13v2.511H2804.206v-2.51H901.4Z" transform="translate(-808.13 -469.15)" fill="none"/>
    </clipPath>
    <linearGradient id="linear-gradient-19" x1="-0.311" y1="399.996" x2="-0.311" y2="399.996" xlink:href="#linear-gradient"/>
    <clipPath id="clip-path-21">
      <path id="Path_167" data-name="Path 167" d="M907.041,613.606H808.13v2.2H2804.206v-2.2H907.041Z" transform="translate(-808.13 -613.605)" fill="none"/>
    </clipPath>
    <linearGradient id="linear-gradient-20" x1="-0.311" y1="405.557" x2="-0.311" y2="405.557" xlink:href="#linear-gradient"/>
    <clipPath id="clip-path-22">
      <path id="Path_168" data-name="Path 168" d="M2713.336,739.994H808.13v1.959H2804.206v-1.959Z" transform="translate(-808.13 -739.994)" fill="none"/>
    </clipPath>
    <linearGradient id="linear-gradient-21" x1="-0.311" y1="406.392" x2="-0.311" y2="406.392" xlink:href="#linear-gradient"/>
    <clipPath id="clip-path-23">
      <path id="Path_169" data-name="Path 169" d="M2711.168,850.394H808.13v1.677H2804.206v-1.677Z" transform="translate(-808.13 -850.394)" fill="none"/>
    </clipPath>
    <linearGradient id="linear-gradient-22" x1="-0.311" y1="424.141" x2="-0.311" y2="424.141" xlink:href="#linear-gradient"/>
    <clipPath id="clip-path-24">
      <path id="Path_170" data-name="Path 170" d="M2711.144,946.622H808.13v1.463H2804.206v-1.463Z" transform="translate(-808.13 -946.622)" fill="none"/>
    </clipPath>
    <linearGradient id="linear-gradient-23" x1="-0.311" y1="435.764" x2="-0.311" y2="435.764" xlink:href="#linear-gradient"/>
    <clipPath id="clip-path-25">
      <path id="Path_171" data-name="Path 171" d="M2713.5,1030.427H808.13v1.3H2804.206v-1.3Z" transform="translate(-808.13 -1030.427)" fill="none"/>
    </clipPath>
    <linearGradient id="linear-gradient-24" x1="-0.311" y1="441.879" x2="-0.311" y2="441.879" xlink:href="#linear-gradient"/>
    <clipPath id="clip-path-26">
      <path id="Path_172" data-name="Path 172" d="M2718.517,1103.557H808.13v1.133H2804.206v-1.133Z" transform="translate(-808.13 -1103.557)" fill="none"/>
    </clipPath>
    <linearGradient id="linear-gradient-25" x1="-0.311" y1="456.151" x2="-0.311" y2="456.151" xlink:href="#linear-gradient"/>
    <clipPath id="clip-path-27">
      <path id="Path_173" data-name="Path 173" d="M898.268,1167.583H808.13v.978H2804.206v-.977H898.268Z" transform="translate(-808.13 -1167.583)" fill="none"/>
    </clipPath>
    <linearGradient id="linear-gradient-26" x1="-0.311" y1="478.205" x2="-0.311" y2="478.205" xlink:href="#linear-gradient"/>
    <clipPath id="clip-path-28">
      <path id="Path_174" data-name="Path 174" d="M2737.93,1224.04H808.13v.884H2804.206v-.883Z" transform="translate(-808.13 -1224.04)" fill="none"/>
    </clipPath>
    <linearGradient id="linear-gradient-27" x1="-0.311" y1="480.227" x2="-0.311" y2="480.227" xlink:href="#linear-gradient"/>
    <clipPath id="clip-path-29">
      <path id="Path_175" data-name="Path 175" d="M2757.789,1286.428H808.13v1.155H2804.206v-1.154Z" transform="translate(-808.13 -1286.428)" fill="none"/>
    </clipPath>
    <linearGradient id="linear-gradient-28" x1="-0.311" y1="325.953" x2="-0.311" y2="325.953" xlink:href="#linear-gradient"/>
    <clipPath id="clip-path-30">
      <path id="Path_176" data-name="Path 176" d="M2791.073,1352.466H808.13v1.036H2804.206v-1.036Z" transform="translate(-808.13 -1352.466)" fill="none"/>
    </clipPath>
    <linearGradient id="linear-gradient-29" x1="-0.311" y1="314.449" x2="-0.311" y2="314.449" xlink:href="#linear-gradient"/>
    <clipPath id="clip-path-31">
      <path id="Path_177" data-name="Path 177" d="M2691.959,1415.357H808.129v1.053H2804.206v-1.053Z" transform="translate(-808.129 -1415.357)" fill="none"/>
    </clipPath>
    <linearGradient id="linear-gradient-30" x1="-0.311" y1="263.26" x2="-0.311" y2="263.26" xlink:href="#linear-gradient"/>
    <clipPath id="clip-path-32">
      <path id="Path_178" data-name="Path 178" d="M2748.019,1481.585H808.13v1.174H2804.206v-1.174Z" transform="translate(-808.13 -1481.585)" fill="none"/>
    </clipPath>
    <linearGradient id="linear-gradient-31" x1="-0.311" y1="192.904" x2="-0.311" y2="192.904" xlink:href="#linear-gradient"/>
    <clipPath id="clip-path-33">
      <path id="Path_179" data-name="Path 179" d="M2658.476,1559.683H808.13v1.437H2804.206v-1.437Z" transform="translate(-808.13 -1559.683)" fill="none"/>
    </clipPath>
    <linearGradient id="linear-gradient-32" x1="-0.311" y1="115.843" x2="-0.311" y2="115.843" xlink:href="#linear-gradient"/>
    <clipPath id="clip-path-34">
      <path id="Path_180" data-name="Path 180" d="M2716.739,1624.218H808.129v1.06H2804.206v-1.06Z" transform="translate(-808.129 -1624.218)" fill="none"/>
    </clipPath>
    <linearGradient id="linear-gradient-33" x1="-0.311" y1="110.287" x2="-0.311" y2="110.287" xlink:href="#linear-gradient"/>
    <clipPath id="clip-path-35">
      <path id="Path_181" data-name="Path 181" d="M2783.549,1696.517H808.13v1.348H2804.206v-1.348Z" transform="translate(-808.13 -1696.517)" fill="none"/>
    </clipPath>
    <linearGradient id="linear-gradient-34" x1="-0.311" y1="45.463" x2="-0.311" y2="45.463" xlink:href="#linear-gradient"/>
  </defs>
  <g id="grid_Background" data-name="grid Background" transform="translate(-808.129 -22.649)" opacity="0.07">
    <g id="Group_36" data-name="Group 36" transform="translate(808.13 22.65)">
      <g id="Group_35" data-name="Group 35" clip-path="url(#clip-path)">
        <g id="Group_34" data-name="Group 34" transform="translate(-620.878 -17.403)">
          <g id="Group_33" data-name="Group 33" transform="translate(0 0)" clip-path="url(#clip-path-2)">
            <rect id="Rectangle_17" data-name="Rectangle 17" width="3269.293" height="1364.731" transform="translate(0 0)" fill="url(#linear-gradient)"/>
          </g>
        </g>
      </g>
    </g>
    <g id="Group_38" data-name="Group 38" transform="translate(2708.006 22.649)">
      <g id="Group_37" data-name="Group 37" clip-path="url(#clip-path-3)">
        <rect id="Rectangle_19" data-name="Rectangle 19" width="96.2" height="1040.412" transform="translate(-0.001 0)" fill="url(#linear-gradient-2)"/>
      </g>
    </g>
    <g id="Group_40" data-name="Group 40" transform="translate(2579.834 22.649)">
      <g id="Group_39" data-name="Group 39" clip-path="url(#clip-path-4)">
        <rect id="Rectangle_20" data-name="Rectangle 20" width="224.373" height="1167.327" transform="translate(-0.001 0)" fill="url(#linear-gradient-3)"/>
      </g>
    </g>
    <g id="Group_42" data-name="Group 42" transform="translate(2451.609 22.649)">
      <g id="Group_41" data-name="Group 41" clip-path="url(#clip-path-5)">
        <rect id="Rectangle_21" data-name="Rectangle 21" width="352.598" height="1306.825" transform="translate(-0.001 0)" fill="url(#linear-gradient-4)"/>
      </g>
    </g>
    <g id="Group_44" data-name="Group 44" transform="translate(2323.436 22.649)">
      <g id="Group_43" data-name="Group 43" clip-path="url(#clip-path-6)">
        <rect id="Rectangle_22" data-name="Rectangle 22" width="311.379" height="1330.717" transform="translate(-0.001 0)" fill="url(#linear-gradient-5)"/>
      </g>
    </g>
    <g id="Group_46" data-name="Group 46" transform="translate(2195.265 22.649)">
      <g id="Group_45" data-name="Group 45" transform="translate(0)" clip-path="url(#clip-path-7)">
        <rect id="Rectangle_23" data-name="Rectangle 23" width="236.717" height="1330.717" transform="translate(-0.001 0)" fill="url(#linear-gradient-6)"/>
      </g>
    </g>
    <g id="Group_48" data-name="Group 48" transform="translate(2067.089 22.649)">
      <g id="Group_47" data-name="Group 47" clip-path="url(#clip-path-8)">
        <rect id="Rectangle_24" data-name="Rectangle 24" width="162.143" height="1330.717" transform="translate(0 0)" fill="url(#linear-gradient-7)"/>
      </g>
    </g>
    <g id="Group_50" data-name="Group 50" transform="translate(1938.866 22.649)">
      <g id="Group_49" data-name="Group 49" clip-path="url(#clip-path-9)">
        <rect id="Rectangle_25" data-name="Rectangle 25" width="87.617" height="1330.717" transform="translate(0 0)" fill="url(#linear-gradient-8)"/>
      </g>
    </g>
    <g id="Group_52" data-name="Group 52" transform="translate(1810.692 22.649)">
      <g id="Group_51" data-name="Group 51" clip-path="url(#clip-path-10)">
        <rect id="Rectangle_26" data-name="Rectangle 26" width="13.04" height="1330.717" transform="translate(0 0)" fill="url(#linear-gradient-9)"/>
      </g>
    </g>
    <g id="Group_54" data-name="Group 54" transform="translate(1616.366 22.649)">
      <g id="Group_53" data-name="Group 53" clip-path="url(#clip-path-11)">
        <rect id="Rectangle_27" data-name="Rectangle 27" width="69.021" height="1330.717" transform="translate(0 0)" fill="url(#linear-gradient-10)"/>
      </g>
    </g>
    <g id="Group_56" data-name="Group 56" transform="translate(1413.618 22.649)">
      <g id="Group_55" data-name="Group 55" clip-path="url(#clip-path-12)">
        <rect id="Rectangle_28" data-name="Rectangle 28" width="143.594" height="1330.717" transform="translate(0 0)" fill="url(#linear-gradient-11)"/>
      </g>
    </g>
    <g id="Group_58" data-name="Group 58" transform="translate(1210.784 22.649)">
      <g id="Group_57" data-name="Group 57" transform="translate(0)" clip-path="url(#clip-path-13)">
        <rect id="Rectangle_29" data-name="Rectangle 29" width="218.257" height="1330.717" transform="translate(0 0)" fill="url(#linear-gradient-12)"/>
      </g>
    </g>
    <g id="Group_60" data-name="Group 60" transform="translate(1008.036 22.649)">
      <g id="Group_59" data-name="Group 59" clip-path="url(#clip-path-14)">
        <rect id="Rectangle_30" data-name="Rectangle 30" width="292.831" height="1330.717" transform="translate(0 0)" fill="url(#linear-gradient-13)"/>
      </g>
    </g>
    <g id="Group_62" data-name="Group 62" transform="translate(808.13 22.649)">
      <g id="Group_61" data-name="Group 61" clip-path="url(#clip-path-15)">
        <rect id="Rectangle_31" data-name="Rectangle 31" width="364.512" height="1330.717" transform="translate(0 0)" fill="url(#linear-gradient-14)"/>
      </g>
    </g>
    <g id="Group_64" data-name="Group 64" transform="translate(808.13 22.649)">
      <g id="Group_63" data-name="Group 63" clip-path="url(#clip-path-16)">
        <rect id="Rectangle_32" data-name="Rectangle 32" width="236.341" height="1183.508" transform="translate(0 0)" fill="url(#linear-gradient-15)"/>
      </g>
    </g>
    <g id="Group_66" data-name="Group 66" transform="translate(808.13 22.649)">
      <g id="Group_65" data-name="Group 65" clip-path="url(#clip-path-17)">
        <rect id="Rectangle_33" data-name="Rectangle 33" width="108.168" height="1056.547" transform="translate(0 0)" fill="url(#linear-gradient-16)"/>
      </g>
    </g>
    <g id="Group_68" data-name="Group 68" transform="translate(808.13 95.735)">
      <g id="Group_67" data-name="Group 67" clip-path="url(#clip-path-18)">
        <rect id="Rectangle_34" data-name="Rectangle 34" width="1996.076" height="3.297" transform="translate(0 0)" fill="url(#linear-gradient-17)"/>
      </g>
    </g>
    <g id="Group_70" data-name="Group 70" transform="translate(808.13 239.265)">
      <g id="Group_69" data-name="Group 69" clip-path="url(#clip-path-19)">
        <rect id="Rectangle_35" data-name="Rectangle 35" width="1996.076" height="2.91" transform="translate(0 0)" fill="url(#linear-gradient-18)"/>
      </g>
    </g>
    <g id="Group_72" data-name="Group 72" transform="translate(808.13 365.691)">
      <g id="Group_71" data-name="Group 71" clip-path="url(#clip-path-20)">
        <rect id="Rectangle_36" data-name="Rectangle 36" width="1996.076" height="2.511" transform="translate(0 0)" fill="url(#linear-gradient-19)"/>
      </g>
    </g>
    <g id="Group_74" data-name="Group 74" transform="translate(808.13 476.675)">
      <g id="Group_73" data-name="Group 73" clip-path="url(#clip-path-21)">
        <rect id="Rectangle_37" data-name="Rectangle 37" width="1996.076" height="2.203" transform="translate(0 0)" fill="url(#linear-gradient-20)"/>
      </g>
    </g>
    <g id="Group_76" data-name="Group 76" transform="translate(808.13 573.778)">
      <g id="Group_75" data-name="Group 75" clip-path="url(#clip-path-22)">
        <rect id="Rectangle_38" data-name="Rectangle 38" width="1996.076" height="1.959" transform="translate(0 0)" fill="url(#linear-gradient-21)"/>
      </g>
    </g>
    <g id="Group_78" data-name="Group 78" transform="translate(808.13 658.597)">
      <g id="Group_77" data-name="Group 77" clip-path="url(#clip-path-23)">
        <rect id="Rectangle_39" data-name="Rectangle 39" width="1996.076" height="1.677" transform="translate(0 0)" fill="url(#linear-gradient-22)"/>
      </g>
    </g>
    <g id="Group_80" data-name="Group 80" transform="translate(808.13 732.528)">
      <g id="Group_79" data-name="Group 79" clip-path="url(#clip-path-24)">
        <rect id="Rectangle_40" data-name="Rectangle 40" width="1996.076" height="1.463" transform="translate(0)" fill="url(#linear-gradient-23)"/>
      </g>
    </g>
    <g id="Group_82" data-name="Group 82" transform="translate(808.13 796.915)">
      <g id="Group_81" data-name="Group 81" clip-path="url(#clip-path-25)">
        <rect id="Rectangle_41" data-name="Rectangle 41" width="1996.076" height="1.297" fill="url(#linear-gradient-24)"/>
      </g>
    </g>
    <g id="Group_84" data-name="Group 84" transform="translate(808.13 853.1)">
      <g id="Group_83" data-name="Group 83" clip-path="url(#clip-path-26)">
        <rect id="Rectangle_42" data-name="Rectangle 42" width="1996.076" height="1.133" transform="translate(0)" fill="url(#linear-gradient-25)"/>
      </g>
    </g>
    <g id="Group_86" data-name="Group 86" transform="translate(808.13 902.291)">
      <g id="Group_85" data-name="Group 85" clip-path="url(#clip-path-27)">
        <rect id="Rectangle_43" data-name="Rectangle 43" width="1996.076" height="0.978" transform="translate(0)" fill="url(#linear-gradient-26)"/>
      </g>
    </g>
    <g id="Group_88" data-name="Group 88" transform="translate(808.13 945.666)">
      <g id="Group_87" data-name="Group 87" clip-path="url(#clip-path-28)">
        <rect id="Rectangle_44" data-name="Rectangle 44" width="1996.076" height="0.884" fill="url(#linear-gradient-27)"/>
      </g>
    </g>
    <g id="Group_90" data-name="Group 90" transform="translate(808.13 993.598)">
      <g id="Group_89" data-name="Group 89" clip-path="url(#clip-path-29)">
        <rect id="Rectangle_45" data-name="Rectangle 45" width="1996.076" height="1.155" transform="translate(0)" fill="url(#linear-gradient-28)"/>
      </g>
    </g>
    <g id="Group_92" data-name="Group 92" transform="translate(808.13 1044.334)">
      <g id="Group_91" data-name="Group 91" clip-path="url(#clip-path-30)">
        <rect id="Rectangle_46" data-name="Rectangle 46" width="1996.076" height="1.036" transform="translate(0 0)" fill="url(#linear-gradient-29)"/>
      </g>
    </g>
    <g id="Group_94" data-name="Group 94" transform="translate(808.129 1092.653)">
      <g id="Group_93" data-name="Group 93" clip-path="url(#clip-path-31)">
        <rect id="Rectangle_47" data-name="Rectangle 47" width="1996.077" height="1.053" fill="url(#linear-gradient-30)"/>
      </g>
    </g>
    <g id="Group_96" data-name="Group 96" transform="translate(808.13 1143.535)">
      <g id="Group_95" data-name="Group 95" clip-path="url(#clip-path-32)">
        <rect id="Rectangle_48" data-name="Rectangle 48" width="1996.076" height="1.174" transform="translate(0)" fill="url(#linear-gradient-31)"/>
      </g>
    </g>
    <g id="Group_98" data-name="Group 98" transform="translate(808.13 1203.537)">
      <g id="Group_97" data-name="Group 97" clip-path="url(#clip-path-33)">
        <rect id="Rectangle_49" data-name="Rectangle 49" width="1996.076" height="1.437" transform="translate(0)" fill="url(#linear-gradient-32)"/>
      </g>
    </g>
    <g id="Group_100" data-name="Group 100" transform="translate(808.129 1253.119)">
      <g id="Group_99" data-name="Group 99" clip-path="url(#clip-path-34)">
        <rect id="Rectangle_50" data-name="Rectangle 50" width="1996.077" height="1.059" transform="translate(0 0)" fill="url(#linear-gradient-33)"/>
      </g>
    </g>
    <g id="Group_102" data-name="Group 102" transform="translate(808.13 1308.665)">
      <g id="Group_101" data-name="Group 101" clip-path="url(#clip-path-35)">
        <rect id="Rectangle_51" data-name="Rectangle 51" width="1996.075" height="1.348" transform="translate(0 0)" fill="url(#linear-gradient-34)"/>
      </g>
    </g>
  </g>
</svg>
