<svg id="Join_Icon" data-name="Join Icon" xmlns="http://www.w3.org/2000/svg" xmlns:xlink="http://www.w3.org/1999/xlink" width="38.756" height="35.333" viewBox="0 0 38.756 35.333">
  <defs>
    <clipPath id="clip-path">
      <rect id="Rectangle_58" data-name="Rectangle 58" width="38.756" height="35.333" fill="#2a79a5"/>
    </clipPath>
  </defs>
  <g id="Group_145" data-name="Group 145" clip-path="url(#clip-path)">
    <path id="Path_192" data-name="Path 192" d="M41.232,24.915A30.727,30.727,0,0,0,38.008,21.7c-1.068-.786-1.538-.1-2.271.662l-1.294-1.294c.984-1.213,3.076-2.416,3.129-4.116a2.582,2.582,0,0,0-2.058-2.544,2.682,2.682,0,0,0-1.928-3.746A7.613,7.613,0,0,0,33.6,9.4a2.507,2.507,0,0,0-3.355-1.961,2.586,2.586,0,0,0-2.111-2.225c-.407-.049-1.193.126-1.4.066s-.986-1-1.286-1.221c-2.391-1.734-4.056.973-5.615,2.395A5.11,5.11,0,0,0,18.2,5.138a2.519,2.519,0,0,0-3.421,2.037,2.624,2.624,0,0,0-3.306,3.305,2.608,2.608,0,0,0-2,3.668,2.6,2.6,0,0,0-2.022,2.725c.093,1.638,2.349,2.99,3.309,4.2l-1.307,1.29c-.828-.609-1.164-1.491-2.3-.693A30.731,30.731,0,0,0,3.88,24.915a1.144,1.144,0,0,0,0,1.7c3.89,3.789,7.61,7.788,11.6,11.458a1.065,1.065,0,0,0,1.226-.247,37.824,37.824,0,0,0,3.393-3.4c.618-.946-.129-1.478-.753-2.1l3.26-3.176,3.166,3.1c-.541.756-1.461,1.2-.708,2.222a34.88,34.88,0,0,0,3.4,3.389,1.032,1.032,0,0,0,1.176.207c4.059-3.832,8.056-7.828,11.884-11.887a1.158,1.158,0,0,0-.29-1.27M22.911,5.161A1.933,1.933,0,0,1,23.7,4.78a1.3,1.3,0,0,1,.91.208c.1.066,1,.957,1.037,1.025s.06.11,0,.177L22.318,9.483c-1.207.819-1.926-.233-2.709-1.013ZM17.995,6.418a10.585,10.585,0,0,1,.891.9c.038.218-.9.7-.762,1.283a7.513,7.513,0,0,0,2.344,2.223,2.61,2.61,0,0,0,1.73.1,1.35,1.35,0,0,1-2.05,1.292A51.758,51.758,0,0,1,16.262,8.33a1.313,1.313,0,0,1,1.733-1.912M13.6,8.357a2.326,2.326,0,0,1,1.4.338c.134.13.233.4.4.581,1.247,1.285,2.556,2.511,3.8,3.8a1.319,1.319,0,0,1-1.783,1.873l-4.6-4.6a1.345,1.345,0,0,1,.781-1.99m-2.145,3.4a1.388,1.388,0,0,1,1.317.339,36.487,36.487,0,0,1,3.621,3.617,1.324,1.324,0,0,1-1.816,1.907,40.191,40.191,0,0,1-3.723-3.7,1.326,1.326,0,0,1,.6-2.168M8.931,17.446a1.331,1.331,0,0,1,.731-2.029,1.447,1.447,0,0,1,1.053.157c.282.183,2.846,2.756,3.034,3.043A1.308,1.308,0,0,1,12,20.459a37.138,37.138,0,0,1-3.065-3.013m6.967,19.4L4.808,25.762,7.9,22.67l11.09,11.086Zm5-7.871c-.824.8-1.6,1.7-2.488,2.41l-8.1-8.082,1.512-1.515a2.634,2.634,0,0,0,3.4-2.641,2.612,2.612,0,0,0,2.661-1.943c.044-.216-.041-.69.1-.789a2.57,2.57,0,0,0,2.686-2.72,2.668,2.668,0,0,0,2.76-2.38c.031-.42-.117-.684-.086-1.063l3.626-3.617a1.316,1.316,0,0,1,1.743,1.922c-.366.5-1.651,1.188-1.024,1.918a.621.621,0,0,0,.79.08c.954-.5,1.984-2.982,3.447-1.726,1.533,1.319-.889,2.563-1.5,3.5-.221.339-.324.7.079.963.762.5,1.454-1.047,2.179-1.294a1.319,1.319,0,0,1,1.728,1.638c-.178.795-1.733,1.347-1.344,2.188.366.79,1.21-.144,1.606-.227,1.35-.284,2.08,1.16,1.188,2.261-1.831,2.26-4.635,4.329-6.585,6.551-2.073.952-3.643.111-5.533,1.75-.918.8-1.95,1.939-2.854,2.82m2.635-.757A4.4,4.4,0,0,1,26.1,26.309c1.6-.295,2.858,0,4.236-1.126.485-.4,2.962-3.129,3.183-3.168a8.282,8.282,0,0,1,1.2,1.108c.055.079.128.121.045.225l-8.005,8-.225-.045Zm5.683,8.63L26.127,33.76,37.213,22.671,40.3,25.762Z" transform="translate(-3.175 -3.175)" fill="#2a79a5"/>
    <path id="Path_193" data-name="Path 193" d="M41.232,24.915A30.727,30.727,0,0,0,38.008,21.7c-1.068-.786-1.538-.1-2.271.662l-1.294-1.294c.984-1.213,3.076-2.416,3.129-4.116a2.582,2.582,0,0,0-2.058-2.544,2.682,2.682,0,0,0-1.928-3.746A7.613,7.613,0,0,0,33.6,9.4a2.507,2.507,0,0,0-3.355-1.961,2.586,2.586,0,0,0-2.111-2.225c-.407-.049-1.193.126-1.4.066s-.986-1-1.286-1.221c-2.391-1.734-4.056.973-5.615,2.395A5.11,5.11,0,0,0,18.2,5.138a2.519,2.519,0,0,0-3.421,2.037,2.624,2.624,0,0,0-3.306,3.305,2.608,2.608,0,0,0-2,3.668,2.6,2.6,0,0,0-2.022,2.725c.093,1.638,2.349,2.99,3.309,4.2l-1.307,1.29c-.828-.609-1.164-1.491-2.3-.693A30.731,30.731,0,0,0,3.88,24.915a1.144,1.144,0,0,0,0,1.7c3.89,3.789,7.61,7.788,11.6,11.458a1.065,1.065,0,0,0,1.226-.247,37.824,37.824,0,0,0,3.393-3.4c.618-.946-.129-1.478-.753-2.1l3.26-3.176,3.166,3.1c-.541.756-1.461,1.2-.708,2.222a34.88,34.88,0,0,0,3.4,3.389,1.032,1.032,0,0,0,1.176.207c4.059-3.832,8.056-7.828,11.884-11.887A1.158,1.158,0,0,0,41.232,24.915ZM22.911,5.161A1.933,1.933,0,0,1,23.7,4.78a1.3,1.3,0,0,1,.91.208c.1.066,1,.957,1.037,1.025s.06.11,0,.177L22.318,9.483c-1.207.819-1.926-.233-2.709-1.013ZM17.995,6.418a10.585,10.585,0,0,1,.891.9c.038.218-.9.7-.762,1.283a7.513,7.513,0,0,0,2.344,2.223,2.61,2.61,0,0,0,1.73.1,1.35,1.35,0,0,1-2.05,1.292A51.758,51.758,0,0,1,16.262,8.33,1.313,1.313,0,0,1,17.995,6.418ZM13.6,8.357a2.326,2.326,0,0,1,1.4.338c.134.13.233.4.4.581,1.247,1.285,2.556,2.511,3.8,3.8a1.319,1.319,0,0,1-1.783,1.873l-4.6-4.6A1.345,1.345,0,0,1,13.6,8.357Zm-2.145,3.4a1.388,1.388,0,0,1,1.317.339,36.487,36.487,0,0,1,3.621,3.617,1.324,1.324,0,0,1-1.816,1.907,40.191,40.191,0,0,1-3.723-3.7A1.326,1.326,0,0,1,11.45,11.752ZM8.931,17.446a1.331,1.331,0,0,1,.731-2.029,1.447,1.447,0,0,1,1.053.157c.282.183,2.846,2.756,3.034,3.043A1.308,1.308,0,0,1,12,20.459,37.138,37.138,0,0,1,8.931,17.446Zm6.967,19.4L4.808,25.762,7.9,22.67l11.09,11.086Zm5-7.871c-.824.8-1.6,1.7-2.488,2.41l-8.1-8.082,1.512-1.515a2.634,2.634,0,0,0,3.4-2.641,2.612,2.612,0,0,0,2.661-1.943c.044-.216-.041-.69.1-.789a2.57,2.57,0,0,0,2.686-2.72,2.668,2.668,0,0,0,2.76-2.38c.031-.42-.117-.684-.086-1.063l3.626-3.617a1.316,1.316,0,0,1,1.743,1.922c-.366.5-1.651,1.188-1.024,1.918a.621.621,0,0,0,.79.08c.954-.5,1.984-2.982,3.447-1.726,1.533,1.319-.889,2.563-1.5,3.5-.221.339-.324.7.079.963.762.5,1.454-1.047,2.179-1.294a1.319,1.319,0,0,1,1.728,1.638c-.178.795-1.733,1.347-1.344,2.188.366.79,1.21-.144,1.606-.227,1.35-.284,2.08,1.16,1.188,2.261-1.831,2.26-4.635,4.329-6.585,6.551-2.073.952-3.643.111-5.533,1.75C22.837,26.954,21.8,28.1,20.9,28.977Zm2.635-.757A4.4,4.4,0,0,1,26.1,26.309c1.6-.295,2.858,0,4.236-1.126.485-.4,2.962-3.129,3.183-3.168a8.282,8.282,0,0,1,1.2,1.108c.055.079.128.121.045.225l-8.005,8-.225-.045Zm5.683,8.63L26.127,33.76,37.213,22.671,40.3,25.762Z" transform="translate(-3.175 -3.175)" fill="#2a79a5"/>
  </g>
</svg>
