<svg xmlns="http://www.w3.org/2000/svg" xmlns:xlink="http://www.w3.org/1999/xlink" width="22.506" height="22.489" viewBox="0 0 22.506 22.489">
  <defs>
    <clipPath id="clip-path">
      <rect id="Rectangle_62" data-name="Rectangle 62" width="22.506" height="22.489" fill="#2a79a5"/>
    </clipPath>
  </defs>
  <g id="phone_icon" data-name="phone icon" clip-path="url(#clip-path)">
    <path id="Path_204" data-name="Path 204" d="M22.412,17.875c-.478,1.189-3.884,3.959-5.087,4.484a2.958,2.958,0,0,1-1.847-.063C9.09,20.862.98,12.855.056,6.284a1.58,1.58,0,0,1,.1-1.138C.72,3.925,3.365.662,4.563.12c.791-.358,1.391.147,1.852.745A26.127,26.127,0,0,1,8.309,3.8c.548.971,1.5,2.392.672,3.41A14.421,14.421,0,0,1,7.418,8.582a6.785,6.785,0,0,0,.718,1.775A10.125,10.125,0,0,0,13.859,15.1l.1-.044c.547-.573,1.254-1.81,2.106-1.882.98-.082,3.034,1.235,3.9,1.783a9.083,9.083,0,0,1,2.329,1.8,1.157,1.157,0,0,1,.123,1.123" transform="translate(0 0)" fill="#2a79a5"/>
  </g>
</svg>
