<svg id="project_icon" data-name="project icon" xmlns="http://www.w3.org/2000/svg" xmlns:xlink="http://www.w3.org/1999/xlink" width="35.38" height="35.406" viewBox="0 0 35.38 35.406">
  <defs>
    <clipPath id="clip-path">
      <rect id="Rectangle_11" data-name="Rectangle 11" width="35.38" height="35.406" fill="#2a79a5"/>
    </clipPath>
  </defs>
  <g id="Group_13" data-name="Group 13" clip-path="url(#clip-path)">
    <path id="Path_137" data-name="Path 137" d="M17.438,35.406.424,26.868A1.4,1.4,0,0,1,.84,24.582c1.67-1,3.692-1.718,5.4-2.7.075-.043.168.007.137-.137L.5,18.769a1.39,1.39,0,0,1,.294-2.323c1.659-1.017,3.73-1.739,5.442-2.721.075-.043.168.007.137-.137C4.393,12.545,2.308,11.661.389,10.513A1.433,1.433,0,0,1,.424,8.537L17.067.146a1.5,1.5,0,0,1,1.3,0C23.912,3,29.6,5.629,35.072,8.609a1.517,1.517,0,0,1-.143,2l-5.873,2.98c-.031.144.062.094.137.137,1.711.982,3.783,1.7,5.442,2.721a1.288,1.288,0,0,1,.716.874,1.481,1.481,0,0,1-.422,1.449l-5.873,2.98c-.031.144.062.094.137.137,1.7.978,3.727,1.695,5.4,2.7a1.377,1.377,0,0,1,.761,1.663,1.221,1.221,0,0,1-.345.623L17.991,35.406ZM30.853,9.474l-13.168-6.5L4.712,9.44l-.137.137,13.169,6.535L30.764,9.628Zm0,8.16-5.008-2.421L17.94,19.069l-.873-.131L9.525,15.214c-1.559.825-3.29,1.512-4.813,2.386-.075.043-.168-.007-.137.137l13.169,6.535,13.021-6.483Zm0,8.16-5.008-2.421L17.94,27.229l-.873-.131L9.525,23.374c-1.559.825-3.29,1.512-4.813,2.386-.075.043-.168-.007-.137.137l13.169,6.535,13.021-6.483Z" transform="translate(0 0)" fill="#2a79a5"/>
  </g>
</svg>
