<svg id="Search_Icon" data-name="Search Icon" xmlns="http://www.w3.org/2000/svg" xmlns:xlink="http://www.w3.org/1999/xlink" width="34.397" height="34.333" viewBox="0 0 34.397 34.333">
  <defs>
    <clipPath id="clip-path">
      <rect id="Rectangle_57" data-name="Rectangle 57" width="34.397" height="34.333" fill="#2a79a5"/>
    </clipPath>
  </defs>
  <g id="Group_143" data-name="Group 143" clip-path="url(#clip-path)">
    <path id="Path_190" data-name="Path 190" d="M34.4,32.657v.6a1.577,1.577,0,0,1-1.075,1.073h-.6l-.673-.368L26.833,28.84a18.037,18.037,0,0,1-4.507,2.46A16.628,16.628,0,0,1,.314,19.25l-.3-2.082c.032-.682-.043-1.4,0-2.078A16.468,16.468,0,0,1,14.293.146C25.092-1.27,34.659,7.788,32.9,18.725a11.373,11.373,0,0,1-.638,2.447,1.414,1.414,0,0,1-2.6-.38,11.779,11.779,0,0,1,.486-2.537c1.439-9.161-6.7-16.64-15.709-15.283A13.4,13.4,0,0,0,3.965,21.438a13.893,13.893,0,0,0,20.716,5.574,10.283,10.283,0,0,1,1.9-1.391,1.336,1.336,0,0,1,.986.08,20.8,20.8,0,0,1,2.031,2c1.306,1.268,3.123,2.771,4.267,4.12a3.416,3.416,0,0,1,.536.84" transform="translate(0 0)" fill="#2a79a5"/>
    <path id="Path_191" data-name="Path 191" d="M373.081,371.316v1.073h-1.074a1.575,1.575,0,0,0,1.074-1.073" transform="translate(-338.685 -338.056)" fill="#2a79a5"/>
  </g>
</svg>
