<svg id="website_icon" data-name="website icon" xmlns="http://www.w3.org/2000/svg" xmlns:xlink="http://www.w3.org/1999/xlink" width="22.025" height="21.472" viewBox="0 0 22.025 21.472">
  <defs>
    <clipPath id="clip-path">
      <rect id="Rectangle_64" data-name="Rectangle 64" width="22.025" height="21.472" fill="#2a79a5"/>
    </clipPath>
  </defs>
  <g id="Group_197" data-name="Group 197" transform="translate(0 0)" clip-path="url(#clip-path)">
    <path id="Path_209" data-name="Path 209" d="M19.585,18.815H11.144l-.186-2.177a28.251,28.251,0,0,1,.186-3.7h8.442l.186,2.177a28.451,28.451,0,0,1-.186,3.7" transform="translate(-4.352 -5.143)" fill="#2a79a5"/>
    <path id="Path_210" data-name="Path 210" d="M19.618,6.637H11.727a11.155,11.155,0,0,1,2.086-4.818c3.016-3.424,5.42,2.422,5.805,4.818" transform="translate(-4.66 -0.306)" fill="#2a79a5"/>
    <path id="Path_211" data-name="Path 211" d="M19.618,25.124a11.28,11.28,0,0,1-2.066,4.793c-3,3.485-5.451-2.387-5.825-4.793Z" transform="translate(-4.66 -9.984)" fill="#2a79a5"/>
    <path id="Path_212" data-name="Path 212" d="M32.885,17.723a4.8,4.8,0,0,1-.285,1.091H27.714l.186-2.177a26.742,26.742,0,0,0-.186-3.7H32.6a2.245,2.245,0,0,1,.192.633,11.026,11.026,0,0,1,.093,4.148" transform="translate(-11.013 -5.143)" fill="#2a79a5"/>
    <path id="Path_213" data-name="Path 213" d="M5.323,18.815H.437a4.8,4.8,0,0,1-.285-1.091,11.026,11.026,0,0,1,.093-4.148,2.242,2.242,0,0,1,.192-.634H5.323a23.589,23.589,0,0,0,0,5.873" transform="translate(0 -5.143)" fill="#2a79a5"/>
    <path id="Path_214" data-name="Path 214" d="M29.986,6.331H25.352A14.1,14.1,0,0,0,23.3,1.114L22.347,0a11.2,11.2,0,0,1,7.639,6.331" transform="translate(-8.88 0)" fill="#2a79a5"/>
    <path id="Path_215" data-name="Path 215" d="M9.163,0l-.95,1.114A14.031,14.031,0,0,0,6.158,6.331H1.524A11.187,11.187,0,0,1,9.163,0" transform="translate(-0.606 0)" fill="#2a79a5"/>
    <path id="Path_216" data-name="Path 216" d="M29.986,25.124a11.2,11.2,0,0,1-7.639,6.332l.951-1.114a14.061,14.061,0,0,0,2.054-5.218Z" transform="translate(-8.88 -9.984)" fill="#2a79a5"/>
    <path id="Path_217" data-name="Path 217" d="M9.163,31.456a11.209,11.209,0,0,1-7.639-6.332H6.158a14.107,14.107,0,0,0,2.055,5.218Z" transform="translate(-0.606 -9.984)" fill="#2a79a5"/>
  </g>
</svg>
