<svg xmlns="http://www.w3.org/2000/svg" width="179.911" height="173.486" viewBox="0 0 179.911 173.486">
  <g id="ecology_icon" data-name="ecology icon" transform="translate(784.452 -115.042)">
    <path id="Path_125" data-name="Path 125" d="M559.548,163.685a63.073,63.073,0,0,1,8.148-25.051c1.428-2.394,5.37-6.7,6.16-8.595,1.153-2.762,1.71-7.938,2.805-11.247.613-1.853,2.2-6.558,3.6-7.645a3.522,3.522,0,0,1,5.571,3.436c-.287,1.995-2.477,6.351-3.187,8.783a52.581,52.581,0,0,0-1.312,5.537c26.036,3.108,46.647,25.159,49.179,51.122,1.087,11.136-2.939,20.759-.886,31.8.418,2.252,2.61,7.445,2.589,8.952-.042,2.967-3.592,3.54-5.841,3.932-32.744,5.711-64.009-18.735-66.5-51.684l-.324-.559Zm64.288,54.451A56.442,56.442,0,0,1,622.087,199c.665-6.729,2.15-11.492,1.4-18.621a50.891,50.891,0,0,0-43.2-44.8,63.257,63.257,0,0,0,.317,18.743c4.078,3.085,21.992,4.378,14.779,11.992-2.872,1.21-9.878-2.977-12.988-3.681a70.525,70.525,0,0,0,13.355,26.163c1.58,1.952,6.564,6.305,7.324,7.783a3.553,3.553,0,0,1-4.654,5c-.947-.494-5.376-5.161-6.373-6.273a34.316,34.316,0,0,1-4.393-5.974c-.906-.106-.557,0-.706.507a14.152,14.152,0,0,1-.893,3.329,3.614,3.614,0,0,1-6.206-.416c-1.137-2.782,2.027-9.368,1.824-12.365-.071-1.05-3.132-6.865-3.767-8.53-3.5-9.187-4.236-15.909-4.982-25.582-.046-.6.04-1.161-.547-1.561-12.952,24.3-3.349,54.578,20.547,67.633a51.733,51.733,0,0,0,30.921,5.787" transform="translate(-1344 61.597)" fill="#2a79a5"/>
    <path id="Path_126" data-name="Path 126" d="M773.119,135.914c3.438-.8,6.166,3.779,7.969,6.286,27.255,37.908-.335,90.951-46.686,90.951-3.017,0-9.136-1.493-11.474-1.215-1.161.139-3.971,1.429-5.489,1.817-3.266.836-9.406,2.622-12.558,2.569-3.474-.059-4.948-4.849-1.7-6.636,1.85-.771,14.495-2.345,14.853-3.765-10.3-26.24-.074-56.455,24.163-70.692,8.414-4.942,16.67-5.984,24.353-12.886,1.51-1.357,5.154-6.1,6.567-6.429M736.336,225.77c40.531-.6,63.233-49.511,37.764-81.143A46.776,46.776,0,0,1,760.46,154.87c-3.952,1.906-8.267,3.007-12.188,5.026-22.722,11.7-33.609,39.954-23.366,63.719a75.084,75.084,0,0,0,15.838-9.439c.485-.792-2.771-14.12-2.279-17.016.448-2.634,4.59-3.181,6.072-1.158,1.375,1.876,1.684,8.908,2.343,11.681.361,1.521.8-.121,1.2-.536A69.311,69.311,0,0,0,762.945,183.7c.934-2.481,2.33-8.99,3.44-10.611,2.036-2.972,6.637-1.1,6.327,2.462-.414,4.757-3.693,10.829-5.108,15.44,2.552-1.317,6.582-2.021,7.3,1.666,1.021,5.251-9.376,5.625-12.475,7.569a78.218,78.218,0,0,1-17.7,19.712Z" transform="translate(-1396.422 52.205)" fill="#2a79a5"/>
    <path id="Path_127" data-name="Path 127" d="M718.953,66.345a40.022,40.022,0,0,1-8.623,9.122A57.841,57.841,0,0,1,649.613,82.8C638.861,77.779,633.181,69.393,621.2,65.9c-3-.874-8.882-.629-8.68-4.972.059-1.271,2.085-6.038,2.731-7.468.994-2.2,4.849-9.427,6.551-10.663a3.589,3.589,0,0,1,5.657,3.186c-.259,1.954-7.4,11.45-6.528,12.628a45.717,45.717,0,0,1,13.237,5.213c4.734,2.769,8.506,6.8,13.143,9.692A50.66,50.66,0,0,0,702.9,72.251c3.98-2.775,8.314-6.434,10.753-10.614-.127-.532-8.08-5.31-9.218-5.9a51.941,51.941,0,0,0-6.541-2.926c-.494-.088-.68.127-1.051.368-3.571,2.318-7.362,6.947-10.942,9.1-3.52,2.115-7.1-.092-5.753-4,.421-1.218,7.551-6.541,9.1-7.752.313-.245.122-.386-.162-.519-1.364-.644-5.886-1.3-7.6-1.531a73.2,73.2,0,0,0-19.924,0c-2.915.4-11.314,2.927-13.328,2.335-1.968-.578-2.6-3.724-1.307-5.376,2.079-2.666,13.717-3.576,17.219-4.391-2.3-1.6-4.854-4.731-2.121-7.212,3.914-3.555,9.6,5.49,12.907,7.145a74.278,74.278,0,0,1,24.082,4.727c3.721,1.386,7.155,3.3,10.8,4.827.361-.35-3.717-5.552-4.223-6.137-13.966-16.134-36.466-21.327-56.5-14.081a3.468,3.468,0,0,1-2.7-5.792c1.188-1.319,5.251-2.317,7.068-2.77a57.6,57.6,0,0,1,65.334,29.82c1.072,2.141,1.945,5.567,3.168,7.37,1.288,1.9,5.138,4.687,7.009,6.693,1.088,1.167,5.569,6.3,5.95,7.4,1.036,2.994-1.3,5.741-4.394,4.746a7.9,7.9,0,0,1-2.268-1.945c-2.188-2.252-4.2-5.3-6.531-7.522-.392-.374-2.463-2.175-2.768-1.966" transform="translate(-1363.578 95)" fill="#2a79a5"/>
    <path id="Path_128" data-name="Path 128" d="M649.71,40.731a3.5,3.5,0,1,1-3.5-3.5,3.5,3.5,0,0,1,3.5,3.5" transform="translate(-1374.742 88.645)" fill="#2a79a5"/>
  </g>
</svg>
