<svg id="medium_icon" data-name="medium icon" xmlns="http://www.w3.org/2000/svg" width="179.781" height="179.683" viewBox="0 0 179.781 179.683">
  <path id="Path_130" data-name="Path 130" d="M974.2,0c.961.418,2.8,1.885,2.8,2.978V36.791h34.864l10.191-18.217c-.424-2.013-1.5-3.594-1.619-5.773-.357-6.383,4.124-11.461,10.174-12.8h3.5c5.562,1.215,10.088,5.817,10.187,11.733a12.214,12.214,0,0,1-11.4,12.11c-2.075.1-3.574-.895-5.444-.552l-10.216,18.522c-.28.5-1.811,1.986-2.219,1.986H977v6.658c5.932.027,11.3,2.677,16.635,4.914l37.493-.016,9.488-9.113c-.19-1.615-1.1-3.027-1.24-4.722-1.258-15.183,21.335-17.792,23.821-2.626-.094,1.006.133,2.183,0,3.154-.943,6.873-7.531,11.068-14.159,10.131-1.266-.179-2.552-1.382-3.7-.85-1.881,1.438-10.2,11.042-11.748,11.042h-31.36c1.422,1.994,3.154,3.782,4.488,5.848,1.629,2.521,6.843,11.108,1.568,12.3-4.076.921-4.532-3.516-6-6.118C988.916,50.657,954.4,51.487,943.55,76.747c-8.983,20.906,4.809,42.406,26.664,45.495,2.141.3,4.289-.586,5.928,1.43a6.215,6.215,0,0,1,.859,1.594v9.986h37.668a5.96,5.96,0,0,1,2.225,1.628l10.559,19.229c1.869.344,3.369-.653,5.444-.551,9.275.456,14.727,11.38,9.072,18.907-7.573,10.078-23.074,3.366-21.427-8.815.238-1.758,1.274-3.149,1.515-4.824l-10.016-18.568H977v34.163c0,1.357-2.061,2.763-3.36,2.946a101.821,101.821,0,0,1-15.4.045c-6.7-.629-3.082-9.75-4.065-14.33a82.512,82.512,0,0,1-20.159-8.41c-1.01-.1-6.809,7.234-8.672,8.038a4.067,4.067,0,0,1-3.541-.017l-23.555-23.763c-1.773-3.959,6.734-8.57,8.275-11.752a79.04,79.04,0,0,1-8.407-20.163c-3.921-.818-13.5,2.161-14.288-3.406.644-10.008-.967-21.313-.045-31.166.615-6.565,9.94-3.146,14.33-4.065a80.439,80.439,0,0,1,8.411-20.159c.177-1.831-11.554-8.568-7.818-12.364L922.32,14.524a3.865,3.865,0,0,1,3.232.31c1.766.88,7.5,7.97,8.461,7.885a85.221,85.221,0,0,1,20.165-8.4C955.092,9.862,952,2.3,957.029,0Zm-4.2,7.008h-8.76V18.045c0,2.628-7.334,3.587-9.385,4.281-6.521,2.2-12.127,5.271-18.153,8.5-3.227.419-7.645-6.161-10.129-8.044L906.9,39.408c-.342.3-.386.474-.175.884.945,1.83,5.839,5.11,7.2,7.183,1.921,2.917-1.922,6.936-3.288,9.681a88.9,88.9,0,0,0-4.865,11.954c-.5,1.507-1.624,8.327-3.586,8.327H890.8v24.528h11.037c.826,0,1.83,1.292,2.174,2.021,1.665,3.537,2.457,8.972,4.138,13.04.672,1.624,1.643,3.7,2.432,5.277,1.356,2.722,5.289,6.671,3.345,9.623-1.365,2.073-6.26,5.353-7.2,7.183-.212.41-.167.582.175.884l16.665,16.626c2.483-1.9,6.851-8.383,10.13-8.048a105.325,105.325,0,0,0,19.21,8.848c1.753.569,8.327,1.452,8.327,3.937v11.037h8.76v-43.1c-23.712-2.532-40.211-24.37-35.218-48.007,3.456-16.359,17.864-29.553,34.638-30.885l.58-.472Zm67.253,4.9a4.9,4.9,0,1,0-4.9,4.9,4.9,4.9,0,0,0,4.9-4.9m18.924,28.551a4.891,4.891,0,1,0-4.891,4.892,4.891,4.891,0,0,0,4.891-4.892m-18.924,127.024a4.9,4.9,0,1,0-4.9,4.9,4.9,4.9,0,0,0,4.9-4.9" transform="translate(-883.491)" fill="#2a79a5"/>
  <path id="Path_131" data-name="Path 131" d="M1165.634,236.943a16.735,16.735,0,0,1,0,3.153,12.4,12.4,0,0,1-9.677,10.117,11.948,11.948,0,0,1-12.8-17.25l-9.062-9.154-24.674-.2a3.506,3.506,0,0,1,0-6.963l26.527.058c4.548,2.674,7.851,7.465,11.828,10.962,1.148.532,2.434-.671,3.7-.85,6.62-.936,13.226,3.257,14.16,10.131m-7.02,1.6a4.893,4.893,0,1,0-4.893,4.893,4.893,4.893,0,0,0,4.893-4.893" transform="translate(-985.928 -99.59)" fill="#2a79a5"/>
  <path id="Path_132" data-name="Path 132" d="M1184.482,154.235v3.5c-2.308,12.378-19.35,13.976-23.165,1.793-3.423-.764-13.925,2.091-13.989-3.362-.069-5.829,10.423-3.01,13.98-3.734,4.094-12.067,20.606-10.377,23.174,1.8m-7.023,1.771a4.89,4.89,0,1,0-4.891,4.89,4.89,4.89,0,0,0,4.891-4.89" transform="translate(-1004.775 -66.287)" fill="#2a79a5"/>
  <path id="Path_133" data-name="Path 133" d="M1025.245,116.9c2.4-.166,5.52.111,5.656,3.252.177,4.1-4.783,3.57-7.407,4.1-17.593,3.575-21.552,27.324-5.891,36.168a19.567,19.567,0,0,0,28.985-13.075c.528-2.6-.043-7.238,3.813-7.406,5.933-.258,2.964,9.907,1.809,13.029-7.789,21.043-37.234,23.082-48.1,3.423-9.3-16.826,1.939-38.168,21.134-39.494" transform="translate(-937.413 -53.72)" fill="#2a79a5"/>
  <path id="Path_134" data-name="Path 134" d="M1117.353,162.986a3.515,3.515,0,1,1-3.515-3.515,3.515,3.515,0,0,1,3.515,3.515" transform="translate(-987.765 -73.308)" fill="#2a79a5"/>
  <path id="Path_135" data-name="Path 135" d="M1086.571,220.162a3.457,3.457,0,1,1-3.457-3.457,3.457,3.457,0,0,1,3.457,3.457" transform="translate(-973.667 -99.618)" fill="#2a79a5"/>
  <path id="Path_136" data-name="Path 136" d="M983.856,70.789a3.573,3.573,0,0,1,3.187,5.669c-3.727,2.324-7.85,3.883-11.483,6.387-12.13,8.36-18.738,21.2-20.351,35.712-.283,2.551.751,6.559-3.074,7.111-4.4.634-4.1-4.489-3.934-7.462.775-14.186,8.893-29.444,19.8-38.362,3.061-2.5,12.186-8.631,15.851-9.055" transform="translate(-913.203 -32.531)" fill="#2a79a5"/>
</svg>
