<svg xmlns="http://www.w3.org/2000/svg" width="179.846" height="179.913" viewBox="0 0 179.846 179.913">
  <g id="network_icon" data-name="network icon" transform="translate(1349 -99.287)">
    <path id="Path_129" data-name="Path 129" d="M31.761,119.1,71.783,96.987,72.154,92,32.713,69.448c-1.267-.32-1.4,1.17-2.2,1.855-7.661,6.563-18.7,6.788-25.723-.85-12.115-13.18.532-34.072,18.03-29.4,4.318,1.152,6.536,3.54,9.8,6.262L71.587,25.181c1.191-.8.211-1.9.275-2.759C73.9-4.737,111.77,1.373,107.546,25.757c-.23,1.325-1.507,3.385-1.03,4.441l19.755,21.47,20-20.324c-10.114-17.679,12.615-36.037,27.666-22.2,15.636,14.373-2.678,39.29-21.149,28.719L132.046,58.284l18.937,21.026c2.518-.426,4.664-2.253,7.394-2.722,28.429-4.891,27.454,41.205-.688,35.158-1.5-.322-6.055-2.9-6.706-2.571L132.046,129.9l20.744,20.729c17.7-10.154,36.019,12.645,22.2,27.666-14.4,15.65-39.259-2.705-28.719-21.149l-20.307-20.323-19.45,21.469c-.478,1.055.8,3.116,1.03,4.442,4.223,24.384-33.647,30.494-35.683,3.334-.064-.856.916-1.961-.275-2.759L32.174,141.2A17.949,17.949,0,0,1,.152,128.559c.694-10.025,9.8-16.981,19.618-16.218,1.131.088,3.756,1.068,4.4.667L42.5,85.9c1.121.858,7.013,4,6.9,5.113L31.57,117.828ZM98.9,22.369a9.01,9.01,0,1,0-9.01,9.01,9.009,9.009,0,0,0,9.01-9.01m71.93-.021a9.044,9.044,0,1,0-9.044,9.044,9.045,9.045,0,0,0,9.044-9.044M83.648,39.55,64.83,67.665l-6.911-5.154L76.348,34.278l-.985-1.023-39.3,22.318-.019,5.11,39.4,22.557.555-.132C79.745,77.826,86.716,75.623,93,76.6c2.327.363,4.089,1.429,6.281,2l19.7-19.514.353-1.2L100.844,37.134c-.853-.456-2.326,1.08-3.21,1.454-4.893,2.07-8.846,1.944-13.986.963M27.035,58.294a9.041,9.041,0,1,0-9.041,9.042,9.041,9.041,0,0,0,9.041-9.042m98.452,6.47L105.673,84.57c-.377.838,1.536,4.714,1.8,6.2a19.818,19.818,0,0,1-1.988,12.541l20,20.411,19.843-22.1a25.364,25.364,0,0,1-1.553-7.16c-.029-2.865,1.116-5.365,1.412-8.1ZM98.907,94.243a9.015,9.015,0,1,0-9.015,9.015,9.015,9.015,0,0,0,9.015-9.015m71.867,0a9.01,9.01,0,1,0-9.01,9.01,9.01,9.01,0,0,0,9.01-9.01M36.062,132.912l39.3,22.312c6.022-6.675,13.794-8.911,22.27-5.326.884.374,2.357,1.911,3.21,1.455l18.551-21.093L99.565,110.025c-1.148-.536-2.135.632-3.238.974-7.812,2.425-15.443.742-20.589-5.77L36.4,127.314ZM27.028,130.2a9.038,9.038,0,1,0-9.039,9.038,9.039,9.039,0,0,0,9.039-9.038M98.9,166.116a9.009,9.009,0,1,0-9.009,9.009,9.009,9.009,0,0,0,9.009-9.009m71.93.021a9.045,9.045,0,1,0-9.045,9.045,9.045,9.045,0,0,0,9.045-9.045" transform="translate(-1349 95)" fill="#2a79a5"/>
  </g>
</svg>
