<svg id="visual_culture_icon" data-name="visual culture icon" xmlns="http://www.w3.org/2000/svg" xmlns:xlink="http://www.w3.org/1999/xlink" width="181.083" height="181.288" viewBox="0 0 181.083 181.288">
  <defs>
    <clipPath id="clip-path">
      <rect id="Rectangle_55" data-name="Rectangle 55" width="181.083" height="181.288" fill="#2a79a5"/>
    </clipPath>
  </defs>
  <g id="Group_136" data-name="Group 136" clip-path="url(#clip-path)">
    <path id="Path_182" data-name="Path 182" d="M22.63,170.051c-47.592-47.91-15.253-131.5,51.761-133.9,2.69-.1,6.706-.708,7.008,2.839-.555,7.791.71,16.513.01,24.187a3.041,3.041,0,0,1-1.16,2.616c-1.209.868-6.757.712-8.817,1C52.844,69.37,36.62,83.8,31.749,101.855c-9.8,36.341,23.46,69.325,59.744,59.367,2.322-.637,7.241-3.2,9.171-2.574l18.856,18.519a3.608,3.608,0,0,1,.677,3.319c-.482,1.6-8.028,5.185-9.861,6A79.033,79.033,0,0,1,22.63,170.051M75.35,42.2A74.866,74.866,0,0,0,38.763,53.751C4.536,75.812-4.444,122.408,18.793,155.957a72.909,72.909,0,0,0,93.554,22.905L98.86,165.329c-2.6.476-5.155,1.648-7.794,2.261C47.523,177.7,10.55,133.53,28.739,92.427c8.136-18.384,26.532-30.88,46.611-32.1Z" transform="translate(0 -11.895)" fill="#2a79a5"/>
    <path id="Path_183" data-name="Path 183" d="M215,84.617c-.9-19.694-9.393-37.193-23.586-50.6-2.048-1.934-6.854-4.064-5.288-7.535,1.931-4.279,8.138,1.875,10,3.576,14.063,12.821,23.836,33,24.907,52.107.166,2.954.992,8.614-3.187,8.509-14.467-1.034-30.706,1.312-44.96,0a3.292,3.292,0,0,1-2.643-1.133c-4.614-10.977-11.574-20.039-22.059-25.885-2-1.112-7.944-3.177-8.523-5.069L139.475,12.3c-.021-4.014,4.58-3.313,7.395-3.206a80.621,80.621,0,0,1,12.268,1.7c2.17.452,8.778,2.027,10.276,3.213a3.02,3.02,0,0,1-2.159,5.314,85.345,85.345,0,0,0-21.721-4.173V55.926a50.894,50.894,0,0,1,28.692,28.692Z" transform="translate(-46.022 -2.965)" fill="#2a79a5"/>
    <path id="Path_184" data-name="Path 184" d="M96.377,117.468c11.584-1.054,22.383,5.4,30.476,13.09,1.569,1.49,7.542,7.939,8.2,9.544,1.073,2.631-1.959,5.522-3.671,7.46-16.74,18.947-36.147,25.24-57,7.535-2.785-2.365-9.279-8.7-10.932-11.718a3.083,3.083,0,0,1-.161-3.51c.781-1.555,4.779-5.985,6.17-7.419,6.794-7,17-14.079,26.922-14.982m.375,6.038c-7.292.723-15.026,5.792-20.313,10.644-.925.849-6.176,6.229-6.359,6.883a1.408,1.408,0,0,0,.3,1.449c7.471,8.573,18.545,18.13,30.739,17.108,10.467-.877,20.314-9.754,26.855-17.325v-1.495c-7.6-8.8-18.737-18.5-31.226-17.263" transform="translate(-20.725 -38.723)" fill="#2a79a5"/>
    <path id="Path_185" data-name="Path 185" d="M183.9,149l25.568-.058a2.873,2.873,0,0,1,2.484,2.8c.537,4.651-.935,13.314-2.014,18.011-2.941,12.8-10.855,28.234-20.443,37.317-1.693,1.6-3.3,1.531-5.118.184-2.6-1.93-14.991-14.244-16.807-16.792-2.6-3.645,2.34-6.632,4.513-9.486a49.772,49.772,0,0,0,9.18-21.777c.308-2.17.164-8.148,1.226-9.344A2.8,2.8,0,0,1,183.9,149m22,5.96H187.781c-.665,12.579-5.861,23.649-13.551,33.356l12.607,12.694a72.636,72.636,0,0,0,19.065-46.05" transform="translate(-55.049 -49.145)" fill="#2a79a5"/>
    <path id="Path_186" data-name="Path 186" d="M200.119,6.213,185.663,41.02a3.068,3.068,0,0,1-5.532-2.5l15.6-37.264a2.682,2.682,0,0,1,1.022-.864c1.057-.452,9.99-.5,11.338-.2,2.766.618,2.8,5.439-.32,5.935-1.493.238-7.005-.312-7.653.088" transform="translate(-59.396 0)" fill="#2a79a5"/>
    <path id="Path_187" data-name="Path 187" d="M236.3.253,255.827.195a3.046,3.046,0,0,1,0,6,132.716,132.716,0,0,1-19.209,0A3.056,3.056,0,0,1,236.3.253" transform="translate(-77.248 -0.064)" fill="#2a79a5"/>
    <path id="Path_188" data-name="Path 188" d="M236.3,18.283l19.528-.058a3.046,3.046,0,0,1,0,6,132.716,132.716,0,0,1-19.209,0,3.056,3.056,0,0,1-.319-5.937" transform="translate(-77.248 -6.014)" fill="#2a79a5"/>
    <path id="Path_189" data-name="Path 189" d="M123.081,147.447a12.089,12.089,0,1,1-12.089-12.089,12.09,12.09,0,0,1,12.089,12.089m-6.008.023a6.054,6.054,0,1,0-6.054,6.054,6.054,6.054,0,0,0,6.054-6.054" transform="translate(-32.634 -44.663)" fill="#2a79a5"/>
  </g>
</svg>
